<svg width="58" height="58" viewBox="0 0 58 58" fill="none" xmlns="http://www.w3.org/2000/svg">
<g clip-path="url(#clip0_255_347)">
<path d="M44.4983 11.0521C44.9118 11.3271 45.1564 11.6498 45.3125 12.1212C45.4033 12.6582 45.3699 13.028 45.1214 13.5159C44.6346 14.0817 44.1478 14.361 43.4447 14.5903C43.3651 14.6174 43.2854 14.6444 43.2033 14.6722C42.951 14.7575 42.6981 14.8412 42.4451 14.9249C42.273 14.9827 42.101 15.0407 41.9289 15.0988C41.509 15.2403 41.0887 15.3803 40.668 15.5196C40.668 15.8624 40.7171 16.0189 40.8472 16.3289C40.8868 16.4239 40.9264 16.519 40.9671 16.617C41.011 16.7205 41.0548 16.8241 41.0999 16.9307C41.1453 17.0394 41.1908 17.1481 41.2376 17.2601C41.387 17.6171 41.5373 17.9738 41.6875 18.3304C41.7904 18.5756 41.8931 18.8208 41.9959 19.0661C42.2572 19.6895 42.5192 20.3126 42.7815 20.9355C42.9274 21.2821 43.0732 21.6288 43.2188 21.9755C43.7269 23.1846 44.2359 24.3934 44.7461 25.6016C44.8138 25.5936 44.8815 25.5855 44.9512 25.5772C48.24 25.2005 51.174 25.5785 53.8715 27.6469C53.9629 27.7196 54.0543 27.7923 54.1485 27.8673C54.2259 27.926 54.3033 27.9847 54.383 28.0451C56.345 29.6259 57.6634 32.1866 58 34.6641C58.2241 37.8807 57.673 40.695 55.6034 43.2332C55.3531 43.5202 55.0952 43.795 54.8282 44.0665C54.7435 44.1526 54.6588 44.2388 54.5715 44.3276C52.4858 46.3235 49.7209 47.1875 46.8754 47.1651C44.4186 47.102 42.0891 46.2379 40.2149 44.6329C40.123 44.5574 40.0312 44.4819 39.9366 44.4041C37.9162 42.6817 36.7293 40.2142 36.3633 37.6094C36.3318 37.184 36.3254 36.7615 36.3279 36.335C36.3286 36.2213 36.3292 36.1077 36.3299 35.9905C36.3803 32.881 37.7454 30.3441 39.8883 28.1527C40.3466 27.7522 40.8446 27.4157 41.3477 27.0743C40.6235 24.6666 40.6235 24.6666 39.4219 22.543C39.3269 22.6773 39.3269 22.6773 39.2299 22.8143C38.6666 23.6075 38.0956 24.3945 37.5174 25.1768C36.7472 26.2191 35.9875 27.2685 35.2305 28.3204C34.4148 29.4539 33.5944 30.5837 32.7645 31.7068C32.3176 32.3122 31.8752 32.9206 31.4356 33.5313C30.9152 34.2538 30.3914 34.9736 29.8638 35.6907C29.8005 35.777 29.7372 35.8632 29.672 35.952C29.5489 36.119 29.4251 36.2855 29.3006 36.4515C29.1706 36.6262 29.0433 36.8029 28.9181 36.981C28.8198 37.1166 28.8198 37.1166 28.7195 37.255C28.6619 37.3365 28.6042 37.4181 28.5449 37.5021C27.9512 38.0855 27.315 38.1012 26.5222 38.1011C26.3949 38.0993 26.2677 38.0976 26.1366 38.0958C26.0045 38.0953 25.8723 38.0948 25.7362 38.0943C25.316 38.0924 24.896 38.0881 24.4759 38.0838C24.1902 38.0821 23.9046 38.0806 23.619 38.0792C22.9205 38.0754 22.222 38.0697 21.5235 38.0626C21.4912 38.2221 21.4912 38.2221 21.4584 38.3849C21.4292 38.5257 21.4 38.6666 21.3699 38.8117C21.3414 38.9508 21.3129 39.0899 21.2836 39.2331C20.9244 40.7261 20.1295 42.1083 19.1446 43.2735C19.0689 43.3657 18.9933 43.4578 18.9154 43.5527C17.5008 45.2099 15.4876 46.4007 13.3672 46.8985C13.2141 46.9364 13.2141 46.9364 13.0579 46.9751C10.1949 47.5687 7.15757 46.9493 4.71405 45.3759C4.01909 44.9013 3.42179 44.3237 2.83208 43.7266C2.71533 43.6097 2.71533 43.6097 2.59622 43.4903C0.502443 41.25 -0.116951 38.3818 -0.0433166 35.4244C0.0781758 32.6912 1.37435 30.246 3.2852 28.3204C5.46606 26.3296 8.28931 25.2807 11.2383 25.3838C12.9463 25.4864 14.5566 25.8975 16.0608 26.719C16.299 26.8649 16.299 26.8649 16.5391 26.8477C16.6993 26.6696 16.8513 26.4839 16.9993 26.2955C17.3466 25.8608 17.6997 25.4385 18.0755 25.0281C18.2433 24.842 18.4109 24.6555 18.5782 24.4688C18.7116 24.321 18.7116 24.321 18.8477 24.1701C18.9316 24.0724 19.0156 23.9747 19.1021 23.8741C19.1783 23.7871 19.2546 23.7 19.3331 23.6104C19.5412 23.2331 19.4719 23.0749 19.3711 22.6563C19.2415 22.3081 19.0911 21.9703 18.9388 21.6315C18.8962 21.5349 18.8536 21.4384 18.8098 21.3389C18.6743 21.0319 18.5378 20.7254 18.4012 20.419C18.2643 20.1109 18.1276 19.8027 17.9914 19.4943C17.9067 19.3027 17.8216 19.1114 17.7361 18.9202C17.6979 18.8339 17.6597 18.7477 17.6203 18.6588C17.5695 18.5449 17.5695 18.5449 17.5177 18.4287C17.4454 18.2384 17.4454 18.2384 17.4454 18.0118C17.3319 18.017 17.2184 18.0223 17.1015 18.0277C15.5391 18.0795 15.5391 18.0795 14.9532 17.5587C14.5675 17.0232 14.4053 16.5224 14.5 15.8594C14.6631 15.3184 14.8258 15.0392 15.3027 14.717C16.0504 14.3562 16.893 14.435 17.7042 14.4399C17.8839 14.4396 18.0636 14.4391 18.2432 14.4386C18.6185 14.4379 18.9937 14.4389 19.369 14.441C19.8484 14.4436 20.3277 14.4421 20.8072 14.4394C21.1777 14.4377 21.5483 14.4383 21.9189 14.4394C22.0956 14.4397 22.2723 14.4394 22.449 14.4383C22.6965 14.4372 22.9438 14.4389 23.1913 14.4414C23.3317 14.4418 23.4721 14.4422 23.6168 14.4425C24.1918 14.5255 24.6239 14.75 25.021 15.1868C25.331 15.7206 25.33 16.2791 25.2618 16.879C24.9657 17.4605 24.6343 17.8056 24.0157 18.0118C23.8065 18.0211 23.5971 18.024 23.3878 18.0229C23.2662 18.0225 23.1446 18.0221 23.0194 18.0217C22.8925 18.0208 22.7657 18.0198 22.6351 18.0189C22.5069 18.0184 22.3788 18.0178 22.2468 18.0173C21.9301 18.016 21.6135 18.0141 21.2969 18.0118C21.3381 18.1027 21.3793 18.1935 21.4217 18.2872C21.5742 18.6245 21.7262 18.9621 21.8777 19.2999C21.9434 19.446 22.0093 19.592 22.0755 19.738C22.1706 19.9478 22.2648 20.1579 22.3589 20.3681C22.4159 20.4945 22.4728 20.6208 22.5315 20.751C22.6563 21.0704 22.6563 21.0704 22.6563 21.4102C24.0303 21.0568 25.4043 20.7032 26.7783 20.3494C27.4167 20.1851 28.0551 20.0207 28.6935 19.8565C29.3107 19.6978 29.9279 19.5389 30.5451 19.38C30.7875 19.3175 31.0299 19.2551 31.2724 19.1927C32.4307 18.8944 33.5888 18.5953 34.7436 18.2839C34.8252 18.262 34.9067 18.24 34.9907 18.2174C35.3559 18.1189 35.7208 18.0196 36.0854 17.9192C36.2688 17.8693 36.2688 17.8693 36.456 17.8184C36.5597 17.7898 36.6633 17.7612 36.7702 17.7318C37.043 17.6719 37.043 17.6719 37.4961 17.6719C37.4618 17.5949 37.4275 17.5179 37.3922 17.4386C37.2361 17.0853 37.0829 16.7308 36.9297 16.3763C36.8757 16.2552 36.8217 16.134 36.766 16.0092C36.4387 15.2447 36.1593 14.5427 36.4375 13.7123C36.8391 12.8903 37.6886 12.6394 38.5021 12.3599C38.6138 12.3226 38.7254 12.2853 38.8405 12.2468C38.9576 12.2072 39.0748 12.1677 39.1955 12.1269C39.4423 12.0438 39.6893 11.9612 39.9364 11.879C40.3126 11.7535 40.6879 11.6254 41.0632 11.4972C41.304 11.4165 41.5449 11.336 41.7858 11.2556C41.897 11.2174 42.0082 11.1792 42.1227 11.1398C42.9214 10.878 43.7065 10.6775 44.4983 11.0521ZM34.5518 21.965C34.463 21.9876 34.3742 22.0101 34.2828 22.0334C34.1864 22.0584 34.0901 22.0835 33.9908 22.1093C33.8885 22.1355 33.7863 22.1616 33.6809 22.1886C33.3428 22.2752 33.0049 22.3626 32.6671 22.4501C32.4324 22.5106 32.1976 22.571 31.9629 22.6313C31.4709 22.758 30.9791 22.8851 30.4873 23.0125C29.8565 23.1758 29.2253 23.3381 28.5941 23.5001C28.1093 23.6246 27.6247 23.7497 27.1402 23.875C26.9075 23.9351 26.6747 23.995 26.4419 24.0546C26.1169 24.1381 25.7921 24.2223 25.4673 24.3068C25.3224 24.3437 25.3224 24.3437 25.1746 24.3814C25.0419 24.4162 25.0419 24.4162 24.9066 24.4516C24.7914 24.4814 24.7914 24.4814 24.6739 24.5118C24.4345 24.5841 24.4345 24.5841 24.129 24.8087C24.1615 24.8846 24.1941 24.9606 24.2276 25.0388C25.3275 27.6053 26.4275 30.1718 27.5274 32.7384C27.8925 32.3818 28.1834 32.0175 28.4761 31.5985C28.9375 30.9432 29.4083 30.2956 29.8851 29.6514C30.6553 28.6093 31.4149 27.5597 32.1719 26.5079C32.4149 26.1703 32.6579 25.8328 32.9012 25.4954C32.9607 25.4128 33.0203 25.3301 33.0817 25.2449C33.4122 24.7871 33.7454 24.3316 34.0818 23.8781C34.1541 23.7804 34.2265 23.6828 34.3011 23.5822C34.4409 23.3939 34.5811 23.2057 34.7216 23.0179C34.8165 22.8902 34.8165 22.8902 34.9132 22.7599C34.9691 22.685 35.025 22.6102 35.0826 22.5331C35.23 22.3172 35.346 22.0997 35.4571 21.8634C35.1034 21.8634 34.8818 21.8802 34.5518 21.965ZM20.8611 27.165C20.3218 27.7765 19.799 28.3981 19.2862 29.0319C18.9584 29.428 18.6129 29.8061 18.2666 30.186C18.0029 30.4827 17.7517 30.7871 17.502 31.0958C17.1726 31.503 16.8353 31.8981 16.4825 32.2852C15.8222 33.0104 15.2017 33.7663 14.6133 34.5509C17.8656 34.5509 21.1179 34.5509 24.4688 34.5509C24.1789 33.6812 24.1789 33.6812 23.8426 32.8368C23.7886 32.7106 23.7345 32.5844 23.6788 32.4544C23.6215 32.3216 23.5641 32.1888 23.505 32.052C23.4448 31.9118 23.3846 31.7716 23.3244 31.6313C23.1673 31.2653 23.0097 30.8995 22.8519 30.5338C22.7228 30.2342 22.5941 29.9345 22.4653 29.6347C22.1997 29.0161 21.9338 28.3977 21.6672 27.7794C21.6202 27.6703 21.5732 27.5612 21.5248 27.4488C21.4527 27.2844 21.3772 27.1215 21.2969 26.961C21.0487 26.9347 21.0487 26.9347 20.8611 27.165ZM5.22559 31.433C3.77046 33.1578 3.3425 35.0102 3.48466 37.2121C3.65511 38.9983 4.58398 40.6 5.89067 41.8009C7.60597 43.1843 9.47246 43.812 11.668 43.6134C13.4145 43.3704 14.8462 42.6007 16.086 41.3477C16.1567 41.2808 16.2273 41.214 16.3002 41.1451C17.0854 40.3421 17.6886 39.1633 17.8985 38.0626C17.8068 38.0622 17.7152 38.0617 17.6207 38.0613C16.7541 38.057 15.8876 38.0506 15.021 38.0417C14.5755 38.0373 14.1301 38.0336 13.6846 38.0319C13.2542 38.0301 12.8238 38.0262 12.3934 38.0208C12.2297 38.0192 12.066 38.0183 11.9024 38.0182C11.0097 38.0171 10.278 38.0068 9.51567 37.4962C9.15076 37.0172 9.13362 36.5559 9.11963 35.9739C9.25498 35.2749 9.84881 34.7312 10.3086 34.211C10.4407 34.0602 10.5727 33.9093 10.7047 33.7583C10.7711 33.6826 10.8375 33.6068 10.906 33.5287C11.2584 33.1252 11.6063 32.7179 11.9543 32.3105C12.2481 31.9667 12.5431 31.624 12.8402 31.283C12.9023 31.2113 12.9645 31.1397 13.0285 31.0659C13.1474 30.9289 13.2666 30.7922 13.3863 30.6559C13.6539 30.3467 13.8895 30.0595 14.0469 29.6798C10.9351 28.1959 7.59159 28.9527 5.22559 31.433ZM46.1055 29.0001C46.3383 29.7358 46.6122 30.4463 46.9126 31.1568C46.9566 31.2616 47.0006 31.3664 47.0459 31.4744C47.1852 31.8062 47.325 32.1377 47.4649 32.4693C47.5587 32.6926 47.6525 32.9159 47.7463 33.1393C47.9187 33.5495 48.0912 33.9597 48.2641 34.3697C48.3202 34.503 48.3202 34.503 48.3774 34.6389C48.4464 34.8013 48.5164 34.9634 48.5874 35.1249C48.8459 35.713 48.9084 36.1799 48.8243 36.8165C48.6543 37.1563 48.6543 37.1563 48.4844 37.3829C48.4844 37.4576 48.4844 37.5324 48.4844 37.6094C47.8201 37.9309 47.1742 38.0306 46.4666 37.8218C45.7542 37.4028 45.5107 36.7745 45.2148 36.0394C45.1745 35.9417 45.1343 35.844 45.0929 35.7433C44.9646 35.4311 44.8377 35.1185 44.7107 34.8057C44.6268 34.6008 44.5428 34.3959 44.4587 34.1911C44.2938 33.7888 44.1293 33.3864 43.9653 32.9837C43.7344 32.417 43.5018 31.851 43.2686 31.2852C43.2346 31.2026 43.2006 31.12 43.1655 31.035C43.0882 30.8475 43.0109 30.6601 42.9336 30.4727C41.6845 30.9543 40.9706 32.237 40.3972 33.3968C40.2846 33.6656 40.1885 33.9329 40.1016 34.211C40.0763 34.285 40.0511 34.3591 40.0251 34.4354C39.6479 35.7618 39.7781 37.3414 40.2149 38.629C40.2451 38.7249 40.2753 38.8209 40.3065 38.9197C40.8927 40.5846 42.2712 42.0418 43.8399 42.8204C45.687 43.6895 47.6514 43.9513 49.6172 43.2735C51.61 42.4592 53.169 41.1024 54.0104 39.0994C54.056 38.9815 54.1015 38.8637 54.1485 38.7423C54.187 38.6489 54.2256 38.5556 54.2653 38.4595C54.8907 36.6499 54.5702 34.5592 53.7688 32.8684C53.3611 32.1328 52.8093 31.5236 52.2227 30.9259C52.153 30.8534 52.0834 30.781 52.0116 30.7064C50.4962 29.2526 48.1486 28.6395 46.1055 29.0001Z" fill="black"/>
</g>
<defs>
<clipPath id="clip0_255_347">
<rect width="58" height="58" fill="white"/>
</clipPath>
</defs>
</svg>
