<svg width="58" height="58" viewBox="0 0 58 58" fill="none" xmlns="http://www.w3.org/2000/svg">
<g clip-path="url(#clip0_255_349)">
<path d="M37.1563 1.81244C37.228 1.84718 37.2996 1.88191 37.3734 1.9177C38.969 2.70228 40.3579 3.70095 41.6341 4.93664C41.8024 5.09911 41.973 5.25898 42.1438 5.41886C44.5952 7.74935 46.3203 10.9704 47.0118 14.2734C47.0278 14.3491 47.0438 14.4248 47.0603 14.5029C48.0223 19.1878 47.2268 24.2944 44.5751 28.317C42.9489 30.7153 40.8589 33.0929 38.1966 34.3631C37.8352 34.6372 37.82 34.906 37.7298 35.3437C37.3218 37.0935 36.2151 38.5762 34.7774 39.6484C34.3999 39.8707 34.0233 40.0852 33.6353 40.2887C32.9246 40.8605 32.77 41.7814 32.6109 42.6433C32.5922 42.7411 32.5734 42.839 32.5541 42.9398C32.2636 44.5099 32.1297 46.0973 32.0587 47.6913C32.0536 47.8051 32.0484 47.9189 32.0432 48.0361C31.9839 49.4164 31.9399 50.795 31.9463 52.1766C31.9466 52.2678 31.947 52.359 31.9474 52.4529C31.9496 52.8989 31.9534 53.3448 31.9595 53.7907C31.9732 55.1088 31.9646 56.2936 31.0391 57.3203C30.156 58.0197 29.3146 58.0896 28.2071 57.9999C27.8626 57.897 27.5945 57.7517 27.3008 57.5468C27.2004 57.4861 27.0999 57.4253 26.9964 57.3627C26.2593 56.6057 26.0438 55.6612 26.0369 54.6326C26.0357 54.507 26.0345 54.3813 26.0333 54.2519C26.0321 54.0493 26.0321 54.0493 26.0309 53.8426C26.028 53.5502 26.025 53.2578 26.0219 52.9654C26.0211 52.8895 26.0204 52.8137 26.0196 52.7356C25.9789 47.2874 25.9789 47.2874 25.1485 41.914C25.1202 41.7821 25.0918 41.6503 25.0627 41.5144C24.8882 40.8834 24.6691 40.6026 24.1148 40.2502C24.0051 40.1887 23.8955 40.1272 23.7825 40.0639C22.0885 39.1033 20.7939 37.4467 20.2177 35.5884C20.1641 35.3437 20.1641 35.3437 20.1442 34.949C20.0875 34.5297 20.0875 34.5297 19.7446 34.2901C19.6121 34.2118 19.478 34.1359 19.3428 34.0622C19.1969 33.9754 19.0514 33.8881 18.9061 33.8002C18.8321 33.756 18.7582 33.7117 18.682 33.6662C17.0771 32.6685 15.6305 31.2968 14.5001 29.7929C14.455 29.7337 14.4099 29.6744 14.3635 29.6134C11.318 25.5888 10.1031 20.7095 10.7188 15.7127C11.1462 12.6682 12.3505 9.83489 14.1602 7.36322C14.2413 7.25224 14.3223 7.14126 14.4058 7.02692C16.1008 4.85001 18.1799 3.18607 20.6173 1.92572C20.6867 1.88953 20.7562 1.85333 20.8277 1.81604C25.8731 -0.776458 32.1018 -0.653029 37.1563 1.81244ZM18.2383 6.00385C18.1177 6.10351 18.1177 6.10351 17.9945 6.20519C17.4539 6.66283 16.9863 7.15424 16.5391 7.70307C16.4515 7.8104 16.3639 7.91773 16.2736 8.02831C13.5822 11.3899 12.1894 15.7214 12.6566 20.0336C13.091 23.4569 14.3903 26.6658 16.7595 29.2031C16.9615 29.42 17.1512 29.6417 17.3392 29.8708C19.7906 32.7275 23.9127 34.3921 27.5854 34.71C32.1985 35.0558 36.4058 33.5508 39.9105 30.5859C41.6783 29.0517 43.0024 27.1667 43.9532 25.0351C44.0147 24.9006 44.0761 24.7661 44.1395 24.6276C45.8005 20.763 45.8078 16.3203 44.2992 12.4097C43.5713 10.6116 42.5989 9.06916 41.3477 7.58979C41.2816 7.50976 41.2154 7.42974 41.1473 7.34729C40.6896 6.80593 40.1978 6.33804 39.6485 5.89057C39.5412 5.80295 39.4338 5.71534 39.3233 5.62506C36.356 3.2494 32.835 1.98306 29.0284 2.0036C28.9487 2.00381 28.8691 2.00402 28.787 2.00423C24.8571 2.02137 21.2475 3.48348 18.2383 6.00385ZM22.543 35.5703C22.9397 36.9718 24.1205 37.848 25.3171 38.5731C26.541 39.326 26.9121 40.4167 27.2411 41.7617C27.4208 42.5604 27.5359 43.3683 27.6407 44.1796C27.6575 44.3069 27.6575 44.3069 27.6747 44.4367C27.9209 46.3333 27.9842 48.2327 28.0044 50.1437C28.0061 50.2885 28.0077 50.4333 28.0094 50.5825C28.0159 51.1835 28.0223 51.7845 28.026 52.3856C28.0288 52.8301 28.0343 53.2746 28.0398 53.7192C28.0402 53.8547 28.0406 53.9903 28.0409 54.13C28.0487 55.0379 28.0487 55.0379 28.4337 55.8476C28.7555 56.0085 28.9836 55.9965 29.3399 55.9609C29.6625 55.708 29.776 55.5587 29.9063 55.1679C29.9185 54.9421 29.924 54.7159 29.926 54.4897C29.9275 54.3496 29.929 54.2094 29.9306 54.065C29.9312 53.9899 29.9318 53.9148 29.9324 53.8374C29.9342 53.5991 29.9369 53.3608 29.9397 53.1225C29.9477 52.4448 29.9544 51.767 29.9603 51.0892C30.0449 41.7041 30.0449 41.7041 31.7188 39.1953C32.0602 38.8873 32.4148 38.6587 32.8162 38.4377C33.8734 37.81 34.7318 36.9821 35.3438 35.9101C35.3438 35.8353 35.3438 35.7606 35.3438 35.6835C34.8226 35.7966 34.304 35.9133 33.788 36.0482C30.0289 37.0179 26.2136 36.8623 22.543 35.5703Z" fill="black"/>
<path d="M21.6368 26.0546C21.9625 26.2316 21.9625 26.2316 22.2032 26.5077C22.3333 26.9551 22.3653 27.1908 22.1749 27.6193C21.9766 27.8671 21.9766 27.8671 21.6368 28.0937C21.1113 28.1508 20.8146 28.0687 20.3907 27.7538C20.2078 27.388 20.2116 27.0165 20.2774 26.621C20.6597 26.0649 20.9743 25.9481 21.6368 26.0546Z" fill="black"/>
<path d="M35.1172 29.9062C35.4958 30.043 35.5643 30.1238 35.7969 30.4726C35.8737 31.279 35.8737 31.279 35.5845 31.655C35.1832 31.95 34.9371 31.9943 34.4375 31.9453C34.0129 31.7094 33.8943 31.572 33.7578 31.1027C33.7578 30.6535 33.8201 30.4797 34.0977 30.1328C34.4928 29.8694 34.6529 29.8683 35.1172 29.9062Z" fill="black"/>
<path d="M23.5625 29.9062C23.8908 30.0813 24.0769 30.2145 24.205 30.5713C24.2889 31.0153 24.2799 31.2044 24.0369 31.5984C23.7454 31.8732 23.6421 31.9382 23.2439 31.9736C22.8385 31.9418 22.6401 31.8459 22.3164 31.6054C22.1356 31.2438 22.1448 30.8652 22.2031 30.4726C22.5952 29.9629 22.9276 29.844 23.5625 29.9062Z" fill="black"/>
<path d="M29.8992 27.3857C30.0597 27.7256 30.0652 27.9477 30.0195 28.3203C29.763 28.845 29.763 28.845 29.4531 29C28.6603 29.0779 28.6603 29.0779 28.207 28.7663C27.9216 28.3471 27.9004 28.1387 27.9805 27.6406C28.1704 27.3286 28.3133 27.1364 28.6389 26.968C29.1212 26.9542 29.5387 27.0601 29.8992 27.3857Z" fill="black"/>
<path d="M33.5312 27.1875C33.8424 27.4585 33.8678 27.6185 33.9277 28.03C33.8711 28.4336 33.8711 28.4336 33.6445 28.7664C33.1743 29.0896 32.9614 29.0804 32.3984 29C32.0198 28.7573 31.9575 28.5919 31.8391 28.1575C31.8311 27.7016 31.8772 27.5312 32.1718 27.1875C32.662 26.8743 33.009 26.9748 33.5312 27.1875Z" fill="black"/>
<path d="M37.1562 26.0546C37.4876 26.2803 37.6759 26.4454 37.7811 26.8405C37.8211 27.3203 37.7519 27.4915 37.4395 27.8742C37.1408 28.0849 36.9311 28.1252 36.5686 28.0937C36.1367 27.9804 36.1367 27.9804 35.9172 27.853C35.7263 27.5161 35.6969 27.2323 35.6836 26.8476C35.9966 26.1434 36.4006 25.9634 37.1562 26.0546Z" fill="black"/>
<path d="M27.5273 30.9257C27.906 31.1685 27.9682 31.3339 28.0867 31.7683C28.0948 32.2292 28.0642 32.3989 27.7539 32.7382C27.3443 32.9127 27.0869 32.9934 26.6494 32.894C26.3523 32.7124 26.2144 32.5961 26.0547 32.2851C25.9829 31.7914 25.9983 31.5749 26.2813 31.1594C26.7515 30.8361 26.9644 30.8453 27.5273 30.9257Z" fill="black"/>
<path d="M27.9734 23.5341C28.1316 23.8691 28.132 24.1018 28.0938 24.4687C27.957 24.8474 27.8762 24.9158 27.5273 25.1484C26.9717 25.2111 26.7457 25.2341 26.2813 24.9147C25.9959 24.4956 25.9746 24.2871 26.0547 23.789C26.2446 23.477 26.3875 23.2848 26.7131 23.1164C27.1954 23.1026 27.613 23.2086 27.9734 23.5341Z" fill="black"/>
<path d="M31.1555 30.8754C31.557 30.966 31.7193 31.1602 31.9453 31.4922C32.0161 31.8887 32.0161 31.8887 31.9453 32.2852C31.6897 32.6212 31.4935 32.8046 31.1028 32.9649C30.6998 32.9649 30.4691 32.8417 30.1328 32.625C29.8868 32.3255 29.9064 32.1685 29.9204 31.7754C30.0979 31.0655 30.4054 30.8333 31.1555 30.8754Z" fill="black"/>
<path d="M41.0078 24.1289C41.3398 24.3549 41.534 24.5173 41.6246 24.9188C41.646 25.3001 41.6034 25.556 41.3972 25.8777C41.0294 26.1134 40.7639 26.1603 40.3281 26.1679C40.0095 26.0547 40.0095 26.0547 39.7617 25.8281C39.5872 25.4185 39.5065 25.1611 39.6059 24.7236C39.9631 24.1391 40.3316 24.034 41.0078 24.1289Z" fill="black"/>
<path d="M17.7851 24.1288C18.174 24.3486 18.3177 24.4847 18.4648 24.9076C18.4648 25.3464 18.3654 25.5764 18.125 25.9413C17.8254 26.1874 17.6685 26.1677 17.2754 26.1537C16.8329 26.0431 16.6713 25.9846 16.4257 25.6014C16.3453 25.0384 16.3361 24.8256 16.6594 24.3554C17.0786 24.07 17.287 24.0487 17.7851 24.1288Z" fill="black"/>
<path d="M31.6055 23.3361C31.9167 23.6071 31.9421 23.767 32.002 24.1786C31.9453 24.5821 31.9453 24.5821 31.7188 24.9149C31.2485 25.2382 31.0357 25.229 30.4727 25.1486C30.0938 24.8571 29.927 24.6243 29.8638 24.1503C29.9204 23.6692 30.1037 23.5231 30.4727 23.2228C30.9285 23.0708 31.161 23.1694 31.6055 23.3361Z" fill="black"/>
<path d="M43.0469 19.371C43.323 19.548 43.323 19.548 43.5 19.8242C43.5804 20.3872 43.5896 20.6001 43.2664 21.0703C42.8455 21.3568 42.6404 21.3861 42.1406 21.2968C41.8046 21.0412 41.6212 20.845 41.4609 20.4543C41.4609 20.0513 41.5841 19.8206 41.8008 19.4843C42.1952 19.1603 42.5735 19.2527 43.0469 19.371Z" fill="black"/>
<path d="M25.8282 27.1876C26.1385 27.5269 26.169 27.6966 26.1609 28.1575C26.0425 28.5919 25.9802 28.7573 25.6016 29.0001C25.0386 29.0805 24.8257 29.0897 24.3555 28.7664C24.0689 28.3455 24.0397 28.1405 24.129 27.6407C24.6659 26.9731 25.0328 26.8751 25.8282 27.1876Z" fill="black"/>
<path d="M35.007 22.1527C35.4085 22.2434 35.5708 22.4376 35.7969 22.7696C35.872 23.2373 35.8462 23.4718 35.6199 23.8882C35.2572 24.2044 35.0287 24.2422 34.5508 24.2422C34.2245 24.1045 34.0464 23.9813 33.8286 23.7041C33.7219 23.32 33.7751 23.0403 33.8711 22.6563C34.1635 22.2002 34.4681 22.1225 35.007 22.1527Z" fill="black"/>
<path d="M23.6758 22.2032C24.0544 22.446 24.1167 22.6114 24.2351 23.0458C24.2431 23.4996 24.1892 23.6695 23.9024 24.0157C23.6016 24.2521 23.4416 24.2422 23.0528 24.2352C22.6563 24.129 22.6563 24.129 22.3801 23.8883C22.1539 23.4719 22.128 23.2373 22.2031 22.7696C22.6243 22.1511 22.9763 22.1033 23.6758 22.2032Z" fill="black"/>
<path d="M15.9726 19.3711C16.2718 19.5915 16.396 19.7489 16.5319 20.0932C16.5415 20.4992 16.4116 20.7288 16.1991 21.0703C15.7743 21.3535 15.5694 21.3576 15.0663 21.2969C14.7343 21.0708 14.5401 20.9085 14.4495 20.507C14.4268 20.103 14.4649 19.8697 14.7123 19.5481C15.1697 19.2118 15.4165 19.2465 15.9726 19.3711Z" fill="black"/>
<path d="M39.1953 21.297C39.4644 21.474 39.4644 21.474 39.6484 21.7501C39.7289 22.3131 39.7381 22.526 39.4148 22.9962C38.9956 23.2816 38.7871 23.3028 38.2891 23.2227C37.9002 23.003 37.7565 22.8668 37.6094 22.4439C37.6094 22.0017 37.7007 21.7748 37.9492 21.4102C38.3825 21.1409 38.7124 21.1531 39.1953 21.297Z" fill="black"/>
<path d="M19.8242 21.2968C20.1532 21.5368 20.2595 21.694 20.3836 22.0827C20.3921 22.5008 20.3052 22.6689 20.0508 22.996C19.6259 23.2792 19.4211 23.2833 18.918 23.2226C18.586 22.9965 18.3918 22.8342 18.3011 22.4327C18.2787 22.0334 18.3177 21.7954 18.5569 21.4738C19.0043 21.1542 19.3047 21.159 19.8242 21.2968Z" fill="black"/>
</g>
<defs>
<clipPath id="clip0_255_349">
<rect width="58" height="58" fill="white"/>
</clipPath>
</defs>
</svg>
