<svg width="58" height="58" viewBox="0 0 58 58" fill="none" xmlns="http://www.w3.org/2000/svg">
<path d="M31.3957 13.7831C32.1847 14.4272 32.7973 15.2596 33.4091 16.0681C34.0348 16.893 34.5494 17.5581 35.5702 17.8983C35.9045 17.9183 36.2371 17.9327 36.5716 17.943C36.776 17.9508 36.9804 17.9587 37.1847 17.9667C37.5053 17.9788 37.8259 17.9903 38.1465 18.0002C39.9846 18.0582 41.4863 18.2087 42.8167 19.6051C43.6025 20.5357 43.9928 21.6645 43.9531 22.8827C43.8459 23.7301 43.6673 24.5621 43.4853 25.3961C43.4537 25.5447 43.4537 25.5447 43.4215 25.6962C43.3806 25.8867 43.3383 26.077 43.2941 26.2668C43.1275 27.0407 43.097 27.7896 43.4101 28.5304C43.4701 28.6176 43.5301 28.7048 43.592 28.7946C43.6628 28.8978 43.7336 29.0011 43.8066 29.1074C44.168 29.5883 44.5454 30.0555 44.9245 30.5225C46.0957 31.973 46.7427 33.2095 46.5585 35.1171C46.2888 36.4963 45.5537 37.528 44.4028 38.3086C43.7739 38.6954 43.1098 39.0106 42.445 39.3297C42.2319 39.4324 42.0191 39.5353 41.8066 39.6391C41.6154 39.7325 41.4237 39.8248 41.232 39.917C40.4361 40.3519 40.0782 40.8349 39.8017 41.6862C39.7391 41.9154 39.6842 42.1452 39.6316 42.3768C39.5897 42.5494 39.5478 42.722 39.5059 42.8946C39.4423 43.1616 39.3794 43.4287 39.3174 43.696C38.9663 45.1973 38.5238 46.4679 37.2695 47.4648C36.1235 48.1718 34.8546 48.4907 33.514 48.2059C32.615 47.9593 31.7772 47.5553 30.9328 47.1674C30.7097 47.0656 30.4864 46.964 30.2631 46.8626C30.0626 46.7714 29.8623 46.6796 29.6619 46.5879C28.9801 46.286 28.3545 46.2123 27.6516 46.4735C27.4985 46.5379 27.3462 46.6041 27.1945 46.6718C27.0714 46.7244 27.0714 46.7244 26.9459 46.7781C26.258 47.0755 25.5797 47.3953 24.9088 47.7291C23.6758 48.3304 22.3571 48.4775 21.0278 48.0736C19.9855 47.6769 18.9721 46.8979 18.4668 45.8815C18.067 44.9461 17.8525 43.953 17.6152 42.9674C17.2992 41.3878 17.2992 41.3878 16.3115 40.1997C15.6965 39.8272 15.0488 39.5196 14.4008 39.2094C12.7358 38.3902 11.4081 37.6425 10.7121 35.8251C10.3459 34.5886 10.4155 33.3306 10.9882 32.1718C11.4448 31.4401 11.976 30.7687 12.5104 30.0929C12.5762 30.0089 12.642 29.9249 12.7098 29.8383C12.8376 29.6757 12.9668 29.5141 13.0976 29.3538C13.6685 28.6307 13.9833 27.9708 13.9158 27.0347C13.8319 26.38 13.6883 25.7408 13.537 25.0988C13.1501 23.3665 12.8762 21.7835 13.8415 20.1711C14.5997 19.0879 15.5835 18.4052 16.8788 18.1249C17.2298 18.089 17.5799 18.0807 17.9324 18.0731C18.1364 18.0662 18.3403 18.0592 18.5442 18.0521C18.8618 18.0421 19.1794 18.0329 19.4971 18.0254C21.4235 18.0048 21.4235 18.0048 23.0035 16.9983C23.0998 16.8799 23.1941 16.7597 23.2863 16.6381C23.3374 16.5743 23.3885 16.5105 23.4412 16.4447C23.5456 16.3142 23.6492 16.183 23.7519 16.0512C23.9831 15.7561 24.2228 15.4685 24.4616 15.1796C24.6929 14.896 24.9217 14.6133 25.1408 14.3203C26.7234 12.4715 29.4962 12.5096 31.3957 13.7831ZM25.0346 17.5036C24.0951 18.673 23.2595 19.5317 21.7499 19.8241C20.8692 19.9092 19.9799 19.916 19.0959 19.9384C18.7872 19.9467 18.4787 19.9577 18.1701 19.9688C18.0767 19.9704 17.9833 19.9719 17.8872 19.9735C17.1228 20.0027 16.5204 20.2172 15.9452 20.7304C15.8841 20.8051 15.8231 20.8799 15.7602 20.9569C15.6974 21.0317 15.6346 21.1065 15.5699 21.1835C15.0834 21.8567 15.0104 22.5111 15.1322 23.3204C15.2297 23.8375 15.3421 24.3513 15.4557 24.8651C16.0187 27.4378 16.0187 27.4378 15.7248 28.4901C15.6998 28.5848 15.6748 28.6794 15.6491 28.7769C15.3037 29.6728 14.7659 30.4099 14.1672 31.1523C12.8608 32.6887 12.8608 32.6887 12.4184 34.5856C12.5301 35.3876 12.9304 36.0076 13.5507 36.519C14.2213 36.9768 14.9899 37.2952 15.7248 37.6367C17.1934 38.3229 18.4131 39.0878 19.0312 40.6679C19.2654 41.41 19.4293 42.1719 19.6012 42.9303C19.9923 44.7017 19.9923 44.7017 21.2048 45.9921C21.8349 46.35 22.3948 46.4147 23.1093 46.3319C23.5829 46.1898 24.0227 45.9766 24.4687 45.7655C24.7799 45.6201 25.0914 45.4754 25.4034 45.3316C25.6208 45.2311 25.8377 45.1296 26.0541 45.0268C27.5334 44.3389 28.805 44.227 30.3593 44.746C30.9335 44.9798 31.4959 45.2363 32.0585 45.4965C32.2809 45.5983 32.5034 45.6999 32.7259 45.8013C32.9255 45.8924 33.1248 45.9842 33.3241 46.076C34.0229 46.3872 34.6797 46.469 35.4194 46.2372C36.2326 45.8706 36.7118 45.3964 37.0473 44.569C37.2452 43.9641 37.3922 43.35 37.5376 42.7308C38.3293 39.3835 38.3293 39.3835 39.8197 38.4507C40.1416 38.276 40.4668 38.111 40.7953 37.9491C41.028 37.8307 41.2606 37.7123 41.4932 37.5938C41.7932 37.4431 42.0934 37.2929 42.3941 37.1435C43.3638 36.6599 43.9704 36.2533 44.5053 35.3083C44.7304 34.5705 44.7489 33.9316 44.4274 33.2196C44.0283 32.4974 43.4916 31.8708 42.9743 31.2314C41.8944 29.8829 41.0823 28.6367 41.2343 26.8476C41.3663 26.093 41.5317 25.3454 41.697 24.5976C42.0621 23.0906 42.0621 23.0906 41.8069 21.5893C41.3366 20.8838 40.811 20.3168 39.9882 20.0507C39.6476 20.0115 39.3073 20.0035 38.9647 19.9949C38.7611 19.9875 38.5574 19.9799 38.3538 19.9724C38.0357 19.9617 37.7176 19.9516 37.3995 19.9427C35.5253 19.8874 34.0739 19.7119 32.7072 18.3147C32.2794 17.8497 31.8782 17.3663 31.485 16.8717C31.3364 16.6852 31.1877 16.4988 31.039 16.3124C30.9657 16.2194 30.8924 16.1264 30.8169 16.0305C30.2479 15.3436 29.7281 14.9421 28.8366 14.7937C27.0209 14.6801 26.0424 16.2302 25.0346 17.5036Z" fill="black"/>
<path d="M27.9146 23.2802C28.9118 23.9984 29.6612 24.9484 29.9063 26.168C30.0579 27.5746 29.9375 28.8175 29.0921 29.9912C28.3204 30.9071 27.3796 31.6126 26.16 31.744C24.6974 31.8455 23.4775 31.6681 22.324 30.6961C21.359 29.775 20.8435 28.7952 20.7905 27.4554C20.7729 26.0377 21.0921 24.9476 22.0899 23.9023C23.6509 22.4121 26.0666 22.1278 27.9146 23.2802ZM23.2581 25.4967C22.7589 26.2639 22.6869 26.9619 22.7696 27.8672C23.0015 28.6385 23.505 29.1932 24.1927 29.6018C24.8618 29.9117 25.6093 29.914 26.3154 29.7222C27.011 29.4196 27.555 28.8395 27.8867 28.1628C28.1067 27.4697 28.1006 26.6679 27.7894 26.0051C27.415 25.3728 26.8789 24.8129 26.168 24.582C25.0222 24.4189 24.0185 24.562 23.2581 25.4967Z" fill="black"/>
<path d="M54.1958 2.43643C55.193 3.15468 55.9425 4.10467 56.1875 5.32422C56.3391 6.73085 56.2187 7.97374 55.3733 9.14746C54.6016 10.0634 53.6608 10.7689 52.4412 10.9003C50.9786 11.0017 49.7588 10.8243 48.6052 9.85237C47.6403 8.93121 47.1248 7.95143 47.0717 6.61163C47.0542 5.19399 47.3733 4.10385 48.3711 3.05859C49.9322 1.56838 52.3479 1.28407 54.1958 2.43643ZM49.5394 4.65294C49.0402 5.42013 48.9681 6.11816 49.0508 7.02344C49.2827 7.79474 49.7862 8.34942 50.4739 8.75806C51.1431 9.06796 51.8905 9.07022 52.5966 8.87842C53.2922 8.57585 53.8362 7.99577 54.168 7.31903C54.3879 6.62595 54.3818 5.82413 54.0706 5.16138C53.6962 4.52909 53.1601 3.96913 52.4493 3.73828C51.3034 3.57519 50.2998 3.71828 49.5394 4.65294Z" fill="black"/>
<path d="M7.23766 49.2482C8.18296 49.8119 8.7708 50.5921 9.06255 51.6563C9.17566 52.9137 9.10214 54.0051 8.2979 55.0335C7.65699 55.7197 6.85875 56.1412 5.92077 56.2256C4.70532 56.2529 3.70351 56.1111 2.77898 55.2477C1.94142 54.3161 1.74663 53.3289 1.77715 52.1081C1.83088 51.1581 2.24015 50.3645 2.94536 49.7305C4.16185 48.8157 5.84158 48.5782 7.23766 49.2482ZM3.92242 51.6138C3.67273 52.1324 3.64803 52.5632 3.73833 53.1289C4.00224 53.6771 4.32302 53.9978 4.87115 54.2618C5.43693 54.3521 5.86771 54.3274 6.38628 54.0777C6.79229 53.7103 7.09093 53.4161 7.18014 52.8572C7.20914 52.2134 7.12955 51.8093 6.68365 51.3164C6.1908 50.8705 5.78671 50.791 5.14284 50.82C4.58395 50.9092 4.28976 51.2078 3.92242 51.6138Z" fill="black"/>
<path d="M48.9252 47.4357C49.8705 47.9994 50.4583 48.7796 50.7501 49.8438C50.8632 51.1012 50.7896 52.1926 49.9854 53.221C49.3445 53.9072 48.5462 54.3287 47.6083 54.4131C46.3928 54.4404 45.391 54.2986 44.4665 53.4352C43.6289 52.5036 43.4341 51.5164 43.4647 50.2956C43.5184 49.3456 43.9277 48.552 44.6329 47.918C45.8494 47.0032 47.5291 46.7657 48.9252 47.4357ZM45.6099 49.8013C45.3602 50.3199 45.3355 50.7507 45.4258 51.3164C45.6897 51.8646 46.0105 52.1853 46.5586 52.4493C47.1244 52.5396 47.5552 52.5149 48.0738 52.2652C48.4798 51.8978 48.7784 51.6036 48.8676 51.0447C48.8966 50.4009 48.8171 49.9968 48.3711 49.5039C47.8783 49.058 47.4742 48.9785 46.8303 49.0075C46.2715 49.0967 45.9773 49.3953 45.6099 49.8013Z" fill="black"/>
<path d="M28.0814 35.6544C29.0267 36.2181 29.6145 36.9983 29.9063 38.0625C30.0194 39.3199 29.9459 40.4114 29.1417 41.4397C28.5007 42.126 27.7025 42.5475 26.7645 42.6318C25.5491 42.6592 24.5473 42.5174 23.6227 41.6539C22.7852 40.7223 22.5904 39.7352 22.6209 38.5143C22.6746 37.5644 23.0839 36.7708 23.7891 36.1368C25.0056 35.222 26.6853 34.9845 28.0814 35.6544ZM24.7662 38.0201C24.5165 38.5386 24.4918 38.9694 24.5821 39.5352C24.846 40.0833 25.1668 40.4041 25.7149 40.668C26.2807 40.7583 26.7115 40.7336 27.23 40.4839C27.636 40.1166 27.9347 39.8224 28.0239 39.2635C28.0529 38.6196 27.9733 38.2155 27.5274 37.7227C27.0346 37.2768 26.6305 37.1972 25.9866 37.2262C25.4277 37.3154 25.1335 37.614 24.7662 38.0201Z" fill="black"/>
<path d="M40.7689 6.65443C41.7142 7.2181 42.302 7.99833 42.5938 9.06254C42.7069 10.3199 42.6334 11.4114 41.8292 12.4397C41.1882 13.126 40.39 13.5475 39.452 13.6318C38.2366 13.6592 37.2348 13.5174 36.3102 12.6539C35.4727 11.7223 35.2779 10.7352 35.3084 9.51433C35.3621 8.56439 35.7714 7.7708 36.4766 7.13676C37.6931 6.22196 39.3728 5.9845 40.7689 6.65443ZM37.4537 9.02006C37.204 9.53863 37.1793 9.96941 37.2696 10.5352C37.5335 11.0833 37.8543 11.4041 38.4024 11.668C38.9682 11.7583 39.399 11.7336 39.9175 11.4839C40.3235 11.1166 40.6222 10.8224 40.7114 10.2635C40.7404 9.61963 40.6608 9.21554 40.2149 8.72269C39.7221 8.27679 39.318 8.1972 38.6741 8.2262C38.1152 8.31541 37.821 8.61405 37.4537 9.02006Z" fill="black"/>
<path d="M30.2957 50.9199C30.9555 51.3187 31.4902 51.9383 31.7188 52.6758C31.81 53.5635 31.8462 54.4452 31.2656 55.168C30.7214 55.7395 30.2278 56.1428 29.4226 56.2256C28.4579 56.2362 27.7906 56.2009 27.0782 55.5224C26.3553 54.7404 26.2269 54.1256 26.2468 53.0661C26.3255 52.1755 26.7398 51.7073 27.403 51.1403C28.2033 50.5889 29.4071 50.5262 30.2957 50.9199ZM28.3911 52.8599C28.1519 53.2096 28.1377 53.3927 28.2071 53.8086C28.377 54.0918 28.377 54.0918 28.6602 54.2617C29.0761 54.3311 29.2592 54.3169 29.6089 54.0777C29.8482 53.728 29.8623 53.5449 29.793 53.1289C29.6231 52.8457 29.6231 52.8457 29.3399 52.6758C28.9239 52.6065 28.7408 52.6206 28.3911 52.8599Z" fill="black"/>
<path d="M38.4519 30.0762C39.1118 30.4749 39.6464 31.0945 39.875 31.832C39.9662 32.7197 40.0024 33.6014 39.4219 34.3242C38.8776 34.8958 38.384 35.2991 37.5789 35.3818C36.6141 35.3925 35.9469 35.3571 35.2345 34.6787C34.5115 33.8966 34.3831 33.2819 34.403 32.2223C34.4818 31.3317 34.896 30.8635 35.5593 30.2966C36.3595 29.7452 37.5634 29.6824 38.4519 30.0762ZM36.5474 32.0161C36.3081 32.3658 36.294 32.5489 36.3633 32.9649C36.5332 33.2481 36.5332 33.2481 36.8164 33.418C37.2324 33.4873 37.4155 33.4732 37.7652 33.2339C38.0044 32.8842 38.0186 32.7011 37.9492 32.2852C37.7793 32.002 37.7793 32.002 37.4961 31.832C37.0802 31.7627 36.8971 31.7769 36.5474 32.0161Z" fill="black"/>
<path d="M52.9519 24.6387C53.6118 25.0374 54.1464 25.657 54.375 26.3945C54.4662 27.2822 54.5024 28.1639 53.9219 28.8867C53.3776 29.4583 52.884 29.8616 52.0789 29.9443C51.1141 29.955 50.4469 29.9196 49.7345 29.2412C49.0115 28.4591 48.8831 27.8444 48.903 26.7848C48.9818 25.8942 49.396 25.426 50.0593 24.8591C50.8595 24.3077 52.0634 24.2449 52.9519 24.6387ZM51.0474 26.5786C50.8081 26.9283 50.794 27.1114 50.8633 27.5274C51.0332 27.8106 51.0332 27.8106 51.3164 27.9805C51.7324 28.0498 51.9155 28.0357 52.2652 27.7964C52.5044 27.4467 52.5186 27.2636 52.4492 26.8477C52.2793 26.5645 52.2793 26.5645 51.9961 26.3945C51.5802 26.3252 51.3971 26.3394 51.0474 26.5786Z" fill="black"/>
<path d="M8.54568 21.9199C9.20553 22.3187 9.74019 22.9383 9.96877 23.6758C10.06 24.5635 10.0962 25.4452 9.51565 26.168C8.97139 26.7395 8.47779 27.1428 7.67262 27.2256C6.70789 27.2362 6.04064 27.2009 5.32823 26.5224C4.60528 25.7404 4.47685 25.1256 4.49676 24.0661C4.57552 23.1755 4.98978 22.7073 5.65302 22.1403C6.45329 21.5889 7.6571 21.5262 8.54568 21.9199ZM6.64114 23.8599C6.40188 24.2096 6.38773 24.3927 6.45706 24.8086C6.62698 25.0918 6.62698 25.0918 6.91018 25.2617C7.32612 25.3311 7.50923 25.3169 7.85891 25.0777C8.09817 24.728 8.11232 24.5449 8.04299 24.1289C7.87307 23.8457 7.87307 23.8457 7.58987 23.6758C7.17393 23.6065 6.99082 23.6206 6.64114 23.8599Z" fill="black"/>
<path d="M21.2332 9.23244C21.893 9.63118 22.4277 10.2508 22.6563 10.9883C22.7475 11.876 22.7837 12.7577 22.2031 13.4805C21.6589 14.052 21.1653 14.4553 20.3601 14.5381C19.3954 14.5487 18.7281 14.5134 18.0157 13.8349C17.2928 13.0529 17.1644 12.4381 17.1843 11.3786C17.263 10.488 17.6773 10.0198 18.3405 9.4528C19.1408 8.90141 20.3446 8.83868 21.2332 9.23244ZM19.3286 11.1724C19.0894 11.5221 19.0752 11.7052 19.1446 12.1211C19.3145 12.4043 19.3145 12.4043 19.5977 12.5742C20.0136 12.6436 20.1967 12.6294 20.5464 12.3902C20.7857 12.0405 20.7998 11.8574 20.7305 11.4414C20.5606 11.1582 20.5606 11.1582 20.2774 10.9883C19.8614 10.919 19.6783 10.9331 19.3286 11.1724Z" fill="black"/>
<path d="M8.54568 5.60744C9.20553 6.00618 9.74019 6.62579 9.96877 7.3633C10.06 8.25098 10.0962 9.13266 9.51565 9.85548C8.97139 10.427 8.47779 10.8303 7.67262 10.9131C6.70789 10.9237 6.04064 10.8884 5.32823 10.2099C4.60528 9.42785 4.47685 8.81311 4.49676 7.75358C4.57552 6.86295 4.98978 6.39479 5.65302 5.8278C6.45329 5.27641 7.6571 5.21368 8.54568 5.60744ZM6.64114 7.54738C6.40188 7.89706 6.38773 8.08017 6.45706 8.49611C6.62698 8.77931 6.62698 8.77931 6.91018 8.94923C7.32612 9.01856 7.50923 9.00441 7.85891 8.76515C8.09817 8.41547 8.11232 8.23236 8.04299 7.81642C7.87307 7.53322 7.87307 7.53322 7.58987 7.3633C7.17393 7.29397 6.99082 7.30812 6.64114 7.54738Z" fill="black"/>
</svg>
