<svg width="58" height="58" viewBox="0 0 58 58" fill="none" xmlns="http://www.w3.org/2000/svg">
<g clip-path="url(#clip0_255_384)">
<path d="M31.1261 0.128654C31.6966 0.489122 32.1502 0.916036 32.3513 1.57691C32.3994 1.81757 32.4135 2.03546 32.415 2.28071C32.4162 2.4193 32.4162 2.4193 32.4175 2.5607C32.4178 2.6611 32.4181 2.7615 32.4184 2.86494C32.4191 2.97146 32.4199 3.07799 32.4206 3.18775C32.4229 3.54026 32.4242 3.89276 32.4253 4.24528C32.4258 4.36593 32.4263 4.48658 32.4267 4.61088C32.4291 5.24973 32.4307 5.88858 32.4318 6.52744C32.433 7.18564 32.4369 7.8438 32.4414 8.50199C32.4444 9.0095 32.4453 9.51699 32.4457 10.0245C32.4463 10.267 32.4476 10.5095 32.4497 10.7521C32.4525 11.0926 32.4524 11.4329 32.4516 11.7734C32.4538 11.922 32.4538 11.922 32.456 12.0735C32.4469 13.1642 32.0297 14.1687 31.2655 14.953C30.4174 15.6327 30.4174 15.6327 29.9062 15.6327C29.9062 16.7168 29.9062 17.8009 29.9062 18.9179C30.2052 18.9552 30.5043 18.9926 30.8124 19.0311C32.0388 19.4983 33.071 20.456 33.6444 21.6366C34.1622 22.9309 34.2246 24.1399 33.871 25.4882C34.2351 25.7137 34.5995 25.9387 34.9649 26.1621C35.1782 26.293 35.3911 26.4247 35.6021 26.5595C35.9514 26.7888 35.9514 26.7888 36.3534 26.8219C36.6322 26.7185 36.8379 26.5761 37.0783 26.4015C37.7713 25.9312 38.3333 25.7858 39.1603 25.8754C39.808 26.0387 40.2882 26.4073 40.7812 26.8405C40.8441 26.8947 40.907 26.9489 40.9718 27.0048C41.1051 27.1197 41.2381 27.235 41.3709 27.3505C41.7064 27.6422 42.0438 27.9316 42.3812 28.2211C42.4476 28.2781 42.5139 28.3352 42.5823 28.394C42.9871 28.7414 43.3968 29.0818 43.8114 29.4176C44.3078 29.8203 44.7819 30.2423 45.2544 30.6726C45.6383 31.014 46.0374 31.335 46.4368 31.658C46.9303 32.065 47.4121 32.4851 47.8936 32.9062C48.1917 33.1664 48.4885 33.4211 48.8015 33.6634C49.2727 34.056 49.4672 34.5019 49.5476 35.1065C49.5746 35.8446 49.5036 36.4441 49.0507 37.0429C48.5247 37.5928 47.9958 37.8741 47.2382 37.9279C46.1272 37.9084 45.3047 37.3447 44.3779 36.7792C43.9551 36.5221 43.5269 36.2748 43.0988 36.0267C42.7582 35.829 42.4186 35.6298 42.079 35.4304C41.5591 35.126 41.0371 34.8255 40.5134 34.5277C40.4431 34.4876 40.3727 34.4476 40.3002 34.4063C39.9587 34.2121 39.6169 34.0182 39.2749 33.8249C36.1494 32.0495 36.1494 32.0495 35.6392 30.4721C35.5167 29.8694 35.5352 29.2716 35.5702 28.66C35.4985 28.6346 35.4268 28.6092 35.3529 28.583C34.8652 28.3741 34.4108 28.1132 33.9489 27.8529C33.8542 27.7999 33.7595 27.7469 33.6619 27.6923C33.4293 27.562 33.197 27.4315 32.9647 27.3007C32.816 27.4115 32.6673 27.5224 32.5187 27.6334C32.4359 27.6952 32.3531 27.757 32.2678 27.8206C32.0683 27.9655 32.0683 27.9655 31.9452 28.0936C31.9397 28.2701 31.9428 28.4469 31.949 28.6234C31.953 28.7417 31.9569 28.8599 31.9611 28.9818C31.9663 29.1158 31.9716 29.2498 31.977 29.3879C31.9824 29.532 31.9877 29.676 31.9933 29.8244C32.0807 32.1054 32.2045 34.385 32.3216 36.6645C32.3564 37.3436 32.3909 38.0227 32.4255 38.7019C32.4907 39.9828 32.5561 41.2637 32.6216 42.5446C32.7394 44.8461 32.8567 47.1476 32.974 49.4491C33.0151 50.2559 33.0563 51.0626 33.0976 51.8694C33.1231 52.3686 33.1486 52.8677 33.1741 53.3669C33.1859 53.5988 33.1978 53.8306 33.2097 54.0625C33.2259 54.3779 33.242 54.6934 33.258 55.0088C33.2628 55.1012 33.2676 55.1937 33.2725 55.2889C33.2896 55.6266 33.3046 55.9625 33.3046 56.3007C33.433 56.2999 33.5614 56.2992 33.6937 56.2984C34.9022 56.2915 36.1107 56.2864 37.3192 56.2831C37.9406 56.2813 38.5619 56.2789 39.1832 56.275C39.7826 56.2713 40.3819 56.2693 40.9813 56.2684C41.2102 56.2678 41.4392 56.2666 41.6681 56.2647C41.9882 56.2623 42.3082 56.2619 42.6283 56.2621C42.7711 56.2603 42.7711 56.2603 42.9167 56.2584C43.5645 56.2619 43.5645 56.2619 43.8039 56.4528C44.0291 56.7363 44.052 56.962 44.0663 57.3202C43.9374 57.5838 43.8207 57.7924 43.6132 57.9999C43.457 58.0111 43.3003 58.0145 43.1437 58.0148C43.0419 58.0152 42.9401 58.0156 42.8352 58.0161C42.6655 58.0159 42.6655 58.0159 42.4923 58.0158C42.3135 58.0163 42.3135 58.0163 42.1311 58.0168C41.7283 58.0178 41.3256 58.018 40.9228 58.0181C40.6354 58.0187 40.348 58.0192 40.0606 58.0198C39.2775 58.0213 38.4943 58.0221 37.7112 58.0226C37.2225 58.0229 36.7339 58.0234 36.2453 58.0239C34.8933 58.0252 33.5414 58.0264 32.1895 58.0268C32.0596 58.0268 32.0596 58.0268 31.9271 58.0269C31.8403 58.0269 31.7535 58.0269 31.6641 58.0269C31.4882 58.027 31.3123 58.027 31.1364 58.0271C31.0491 58.0271 30.9619 58.0271 30.872 58.0272C29.4577 58.0276 28.0434 58.0296 26.6291 58.0322C25.1784 58.0349 23.7276 58.0363 22.2769 58.0365C21.4618 58.0366 20.6468 58.0372 19.8317 58.0393C19.0654 58.0412 18.2991 58.0414 17.5327 58.0404C17.2508 58.0403 16.9689 58.0408 16.687 58.0419C16.3034 58.0433 15.9199 58.0427 15.5363 58.0415C15.4236 58.0424 15.311 58.0433 15.1949 58.0443C15.0925 58.0435 14.9901 58.0428 14.8846 58.042C14.796 58.0421 14.7074 58.0422 14.6161 58.0422C14.324 57.9883 14.2266 57.8927 14.0468 57.66C13.9196 57.242 13.8953 57.0585 14.0893 56.6618C14.2733 56.4139 14.2733 56.4139 14.3866 56.3007C14.7073 56.2899 15.0251 56.2864 15.3458 56.2878C15.4966 56.2878 15.4966 56.2878 15.6505 56.2878C15.9846 56.2878 16.3186 56.2887 16.6527 56.2896C16.8836 56.2898 17.1146 56.29 17.3456 56.2901C17.9547 56.2905 18.5639 56.2916 19.1731 56.2929C19.7942 56.294 20.4153 56.2946 21.0364 56.2951C22.256 56.2964 23.4756 56.2983 24.6952 56.3007C24.6999 56.1884 24.7046 56.0761 24.7094 55.9604C24.7537 54.9019 24.8002 53.8435 24.849 52.7852C24.874 52.2411 24.8982 51.697 24.9206 51.1528C24.9422 50.6275 24.9659 50.1024 24.9911 49.5773C25.0003 49.377 25.0088 49.1767 25.0165 48.9764C25.0275 48.6956 25.0411 48.415 25.0553 48.1344C25.0579 48.0517 25.0605 47.969 25.0632 47.8838C25.0943 47.344 25.2127 47.0488 25.6015 46.6718C26.0194 46.5295 26.1978 46.5196 26.5998 46.7072C26.8476 46.8983 26.8476 46.8983 26.9608 47.1249C26.974 47.4362 26.9792 47.7436 26.9781 48.055C26.9779 48.1538 26.9777 48.2526 26.9774 48.3544C26.9664 49.7814 26.8851 51.2063 26.8099 52.6311C26.7938 52.9403 26.7785 53.2494 26.7632 53.5586C26.7448 53.9289 26.7256 54.2993 26.7064 54.6696C26.6995 54.8075 26.6927 54.9454 26.6856 55.0875C26.6788 55.214 26.6721 55.3405 26.6651 55.4708C26.6593 55.5822 26.6535 55.6936 26.6475 55.8084C26.621 56.0741 26.621 56.0741 26.5077 56.3007C28.1526 56.3007 29.7974 56.3007 31.4921 56.3007C31.4547 56.2259 31.4173 56.1511 31.3788 56.0741C31.3513 55.7256 31.3303 55.3789 31.3136 55.0299C31.3079 54.9203 31.3023 54.8107 31.2965 54.6978C31.2775 54.3283 31.2594 53.9588 31.2412 53.5892C31.2278 53.3253 31.2144 53.0613 31.2009 52.7973C31.1644 52.0785 31.1286 51.3598 31.0928 50.641C31.0592 49.9662 31.0251 49.2914 30.991 48.6167C30.9234 47.2795 30.8563 45.9423 30.7895 44.6051C30.7246 43.3068 30.6595 42.0085 30.594 40.7102C30.59 40.6303 30.5859 40.5503 30.5818 40.4679C30.5656 40.1466 30.5494 39.8253 30.5332 39.504C30.4596 38.0442 30.3862 36.5844 30.3128 35.1246C30.3053 34.9762 30.2979 34.8277 30.2902 34.6748C30.2474 33.8223 30.2046 32.9698 30.162 32.1174C30.1491 31.8587 30.1361 31.6 30.1231 31.3413C30.1054 30.9892 30.0878 30.6371 30.0703 30.285C30.0625 30.1301 30.0625 30.1301 30.0545 29.9719C30.0475 29.8309 30.0475 29.8309 30.0403 29.6869C30.0363 29.6056 30.0322 29.5243 30.028 29.4405C30.0206 29.256 30.0194 29.0713 30.0194 28.8866C29.3465 28.8866 28.6737 28.8866 27.9804 28.8866C27.9721 29.0572 27.9638 29.2279 27.9553 29.4037C27.8773 31.0137 27.799 32.6237 27.7204 34.2337C27.68 35.0614 27.6397 35.8891 27.5996 36.7168C27.5647 37.4386 27.5296 38.1604 27.4942 38.8822C27.4755 39.264 27.4569 39.6458 27.4385 40.0277C27.4179 40.455 27.397 40.8823 27.3759 41.3097C27.367 41.4974 27.367 41.4974 27.3579 41.6889C27.3305 42.2393 27.2991 42.7893 27.2548 43.3385C27.2479 43.427 27.2409 43.5154 27.2337 43.6065C27.1874 43.8397 27.1874 43.8397 26.9396 44.1937C26.621 44.4061 26.621 44.4061 26.2812 44.4769C25.797 44.3761 25.6634 44.2455 25.3749 43.8397C25.308 43.3606 25.347 42.8901 25.378 42.4087C25.3857 42.2557 25.3931 42.1026 25.4002 41.9496C25.4169 41.6038 25.4355 41.2582 25.4554 40.9125C25.4917 40.277 25.5223 39.6413 25.5528 39.0055C25.6245 37.5251 25.7013 36.045 25.7785 34.5648C25.8246 33.677 25.8706 32.7892 25.9162 31.9013C25.9343 31.5504 25.9527 31.1994 25.9711 30.8485C25.9822 30.6332 25.9933 30.4179 26.0044 30.2027C26.0095 30.107 26.0146 30.0113 26.0199 29.9127C26.0429 29.4595 26.0611 29.0061 26.0701 28.5524C26.0729 28.4299 26.0729 28.4299 26.0757 28.305C26.0698 28.0663 26.0698 28.0663 25.8563 27.8206C25.7722 27.7588 25.6881 27.6971 25.6015 27.6334C25.5174 27.569 25.4332 27.5046 25.3466 27.4383C25.2812 27.3929 25.2157 27.3475 25.1483 27.3007C24.2918 27.7181 23.4529 28.1342 22.6562 28.66C22.6741 28.7399 22.6921 28.8198 22.7106 28.9021C22.8563 29.7051 22.9113 30.563 22.4705 31.2797C22.016 31.9058 21.4069 32.273 20.6861 32.5284C20.6008 32.5601 20.5156 32.5919 20.4277 32.6245C20.114 32.7402 19.7992 32.8526 19.4843 32.9647C19.3528 33.0119 19.2214 33.0591 19.0859 33.1078C18.0665 33.4738 17.0452 33.8345 16.0234 34.194C15.6082 34.3401 15.1932 34.4865 14.7782 34.633C14.3092 34.7985 13.8402 34.964 13.371 35.1291C13.2303 35.1787 13.0896 35.2282 12.9446 35.2793C12.8084 35.3271 12.6723 35.3749 12.532 35.4241C12.2493 35.5246 11.9678 35.6266 11.6867 35.7313C11.4776 35.8085 11.4776 35.8085 11.2642 35.8872C11.1401 35.9337 11.016 35.9802 10.8881 36.0282C10.2073 36.2373 9.5217 36.252 8.85 36.0021C8.16155 35.6028 7.7245 35.0775 7.47646 34.3241C7.34579 33.5848 7.48227 32.9696 7.8495 32.3191C8.50395 31.437 9.68556 30.9731 10.6315 30.4557C11.2667 30.1065 11.8922 29.7416 12.5175 29.3751C12.7476 29.2404 12.9777 29.1058 13.2078 28.9711C13.3253 28.9023 13.4429 28.8335 13.564 28.7626C14.2149 28.3823 14.867 28.004 15.5194 27.6264C15.6417 27.5553 15.764 27.4842 15.89 27.411C17.2797 26.6076 18.4997 25.9287 20.16 26.3705C20.6453 26.5617 21.0773 26.8048 21.5233 27.0741C21.9403 26.8408 22.355 26.6038 22.7694 26.3661C22.9477 26.2664 22.9477 26.2664 23.1296 26.1648C23.2983 26.0673 23.2983 26.0673 23.4704 25.9678C23.5748 25.9085 23.6792 25.8492 23.7868 25.7881C23.8622 25.7265 23.9377 25.6649 24.0155 25.6014C24.03 25.1732 24.03 25.1732 23.9589 24.858C23.7594 23.4863 23.9523 22.172 24.72 20.9998C25.4158 20.0705 26.202 19.4328 27.3007 19.0311C27.5624 18.9938 27.824 18.9564 28.0937 18.9179C28.0937 17.9085 28.0937 16.8992 28.0937 15.8593C27.7572 15.7845 27.4208 15.7097 27.0741 15.6327C26.4418 15.2922 25.9959 14.8437 25.6793 14.1954C25.4018 12.8583 25.7659 11.497 26.0108 10.1797C26.0532 9.94747 26.0956 9.71523 26.1379 9.48296C26.2264 8.9981 26.3157 8.51339 26.4056 8.02878C26.5204 7.40931 26.6335 6.78954 26.7461 6.16966C26.8332 5.69072 26.9211 5.21193 27.0094 4.73319C27.0514 4.50475 27.0931 4.27627 27.1347 4.04775C27.1929 3.72806 27.2523 3.40859 27.3119 3.08915C27.3371 2.94921 27.3371 2.94921 27.3627 2.80644C27.5031 2.06492 27.6739 1.28031 28.1857 0.700813C28.2378 0.639336 28.29 0.577858 28.3437 0.514518C29.1048 -0.140462 30.205 -0.249427 31.1261 0.128654ZM29.5014 1.97906C29.268 2.39259 29.2058 2.80865 29.1244 3.27326C29.1055 3.37499 29.0867 3.47672 29.0673 3.58153C29.0054 3.91762 28.9453 4.25401 28.8853 4.59043C28.8427 4.82437 28.8 5.0583 28.7572 5.29221C28.6678 5.78249 28.5793 6.27291 28.4913 6.76346C28.3787 7.3917 28.2644 8.01963 28.1496 8.64748C28.0614 9.13058 27.9738 9.61379 27.8864 10.097C27.8445 10.3286 27.8024 10.5601 27.7602 10.7916C27.7013 11.1155 27.6432 11.4395 27.5854 11.7636C27.5679 11.859 27.5504 11.9543 27.5324 12.0526C27.3493 12.9196 27.3493 12.9196 27.5626 13.7423C27.8736 14.0533 28.2035 14.0721 28.6247 14.0892C29.1493 14.0816 29.4867 13.9644 29.93 13.6928C30.5315 13.0624 30.6523 12.3616 30.6409 11.5199C30.6413 11.4187 30.6417 11.3174 30.6422 11.2131C30.643 10.8813 30.6406 10.5496 30.6381 10.2178C30.6378 9.98621 30.6377 9.75466 30.6377 9.52311C30.6374 9.03929 30.6355 8.55551 30.6325 8.0717C30.6286 7.45103 30.6278 6.8304 30.6279 6.20972C30.6279 5.73227 30.6266 5.25484 30.625 4.77739C30.6243 4.54845 30.6238 4.3195 30.6236 4.09055C30.6232 3.77139 30.6212 3.45227 30.6187 3.13312C30.6189 3.03832 30.619 2.94351 30.6191 2.84583C30.6142 2.40545 30.6091 2.18718 30.3593 1.81239C29.8877 1.73906 29.8877 1.73906 29.5014 1.97906ZM26.3944 21.8632C25.858 22.581 25.5901 23.4628 25.7147 24.3554C25.9589 25.3169 26.3138 26.0283 27.1378 26.5935C28.0088 27.0916 28.8009 27.2385 29.7929 27.0741C30.7595 26.7694 31.4516 26.2643 31.9452 25.3749C32.3569 24.4884 32.3798 23.6227 32.0727 22.6973C31.6879 21.825 31.0318 21.1236 30.154 20.7304C28.6819 20.2817 27.4084 20.771 26.3944 21.8632ZM38.1757 27.8034C37.6467 28.2552 37.4178 28.7145 37.3332 29.4035C37.4324 30.1836 37.7053 30.61 38.2914 31.0964C38.6454 31.3635 39.0232 31.569 39.4147 31.7753C39.5964 31.8737 39.778 31.9724 39.9594 32.0713C40.104 32.1501 40.104 32.1501 40.2514 32.2304C40.792 32.5298 41.3244 32.8432 41.8573 33.1559C42.9887 33.8188 44.1232 34.4759 45.2597 35.13C45.3769 35.1974 45.494 35.2649 45.6146 35.3343C45.7178 35.3937 45.8209 35.453 45.9271 35.5141C46.1261 35.6297 46.3227 35.7496 46.517 35.873C46.8558 36.063 47.0821 36.0658 47.4647 36.0233C47.5395 35.9486 47.6143 35.8738 47.6913 35.7968C47.6799 35.3503 47.6575 35.0921 47.3541 34.7551C47.2551 34.683 47.1561 34.6108 47.0541 34.5365C46.9412 34.4505 46.8283 34.3645 46.712 34.2759C46.6506 34.2295 46.5892 34.1831 46.5259 34.1353C46.1732 33.8606 45.8396 33.5638 45.5036 33.2692C45.3583 33.1427 45.213 33.0163 45.0677 32.8899C44.9955 32.8271 44.9234 32.7643 44.849 32.6996C44.0513 32.0063 43.2518 31.3153 42.4308 30.6495C41.9257 30.2398 41.434 29.8167 40.944 29.3893C40.4525 28.9618 39.9605 28.5355 39.4572 28.122C39.3726 28.0524 39.2881 27.9829 39.201 27.9113C38.7976 27.6378 38.6218 27.5896 38.1757 27.8034ZM16.9921 28.8724C16.8546 28.9515 16.717 29.0305 16.5793 29.1092C16.1867 29.3344 15.7963 29.5634 15.4062 29.7929C15.2314 29.8947 15.0566 29.9965 14.8818 30.0982C14.5847 30.2718 14.2885 30.447 13.9928 30.623C13.1948 31.0967 12.3885 31.5564 11.5838 32.0187C11.3466 32.1551 11.1097 32.2919 10.873 32.4292C10.6492 32.5588 10.4247 32.6873 10.1995 32.8146C10.097 32.8737 9.99457 32.9327 9.889 32.9935C9.79843 33.045 9.70786 33.0965 9.61454 33.1495C9.36637 33.3024 9.36637 33.3024 9.25356 33.6657C9.27018 33.9766 9.27018 33.9766 9.39517 34.2037C9.84404 34.435 10.3717 34.2593 10.8357 34.1216C11.1857 34.0032 11.5328 33.8787 11.8798 33.7519C12.0094 33.7054 12.139 33.659 12.2725 33.611C12.6203 33.486 12.9679 33.3601 13.3153 33.2338C13.674 33.1036 14.033 32.9743 14.392 32.8448C14.9599 32.64 15.5277 32.4345 16.0952 32.2286C16.7683 31.9848 17.4423 31.7439 18.1169 31.5045C18.3739 31.4128 18.6308 31.321 18.8876 31.2292C19.0436 31.1735 19.1997 31.1182 19.3559 31.0632C19.5673 30.9886 19.7783 30.9127 19.9892 30.8367C20.1036 30.796 20.2181 30.7552 20.336 30.7132C20.6131 30.5876 20.7704 30.4841 20.9569 30.246C21.0095 29.7442 20.8791 29.3016 20.6666 28.8512C20.1847 28.3198 19.7438 28.1285 19.036 28.0335C18.261 28.0495 17.6412 28.489 16.9921 28.8724Z" fill="black"/>
<path d="M20.8438 1.69934C21.1341 1.93298 21.1341 1.93298 21.2969 2.26574C21.304 2.66931 21.304 2.66931 21.1837 3.05871C20.7275 3.50156 20.191 3.72435 19.619 3.97912C17.4256 4.98977 15.5591 6.3801 13.8204 8.04309C13.7141 8.14341 13.6078 8.24373 13.4982 8.34709C9.56261 12.1556 7.43362 17.6916 7.32362 23.1163C7.31087 24.9134 7.46915 26.6913 7.88182 28.4426C7.9522 28.7622 7.98141 29.0152 7.92975 29.34C7.65153 29.7164 7.48504 29.881 7.0235 29.9772C6.55842 29.8803 6.41656 29.7071 6.11725 29.34C5.99168 29.0189 5.92942 28.6946 5.86944 28.3558C5.8513 28.2602 5.83316 28.1645 5.81446 28.0659C5.7609 27.7736 5.71167 27.481 5.66412 27.1876C5.65052 27.1062 5.63692 27.0248 5.62291 26.941C4.67338 20.9904 6.25675 14.7229 9.73207 9.84187C10.3818 8.94686 11.0709 8.10485 11.8408 7.30969C11.9565 7.19001 12.0713 7.06956 12.1855 6.94849C14.0945 4.92602 16.3295 3.41262 18.8189 2.18786C18.9169 2.13862 19.0148 2.08938 19.1157 2.03865C19.7236 1.74967 20.1699 1.62355 20.8438 1.69934Z" fill="black"/>
<path d="M38.0625 1.69918C38.496 1.84776 38.8995 2.04591 39.3086 2.25143C39.4807 2.3362 39.4807 2.3362 39.6564 2.42268C41.7154 3.45339 43.5305 4.7577 45.1992 6.34371C45.2618 6.40264 45.3244 6.46156 45.3889 6.52226C47.0355 8.08122 48.3688 9.82034 49.5039 11.7812C49.5696 11.8941 49.5696 11.8941 49.6365 12.0093C52.5758 17.1301 53.3899 23.5526 51.901 29.2571C51.7544 29.6019 51.6408 29.7255 51.3164 29.9062C50.8664 29.9828 50.6908 29.9408 50.304 29.6938C49.9555 29.1658 50.0718 28.8107 50.1836 28.207C50.226 27.9563 50.2674 27.7055 50.3088 27.4546C50.3378 27.2813 50.3676 27.1082 50.3982 26.9352C51.3202 21.6655 50.0896 15.8424 47.0392 11.4356C46.7388 11.0136 46.4242 10.6036 46.1055 10.1953C46.0257 10.0901 45.946 9.985 45.8639 9.87667C43.7639 7.19388 40.9823 5.09036 37.8577 3.74721C37.3468 3.52093 36.9978 3.33121 36.7031 2.832C36.7099 2.43918 36.7473 2.16497 36.9368 1.81954C37.3012 1.61968 37.6623 1.64289 38.0625 1.69918Z" fill="black"/>
<path d="M23.3358 11.668C23.5978 11.8521 23.5978 11.8521 23.7889 12.1211C23.8456 12.5176 23.8456 12.5176 23.7889 12.9141C23.4564 13.3163 23.0412 13.5618 22.5995 13.8274C21.7718 14.3432 21.0787 14.9447 20.3905 15.6329C20.308 15.7154 20.2255 15.7979 20.1405 15.8829C18.1922 17.9542 17.1902 20.7518 17.0699 23.5626C17.0367 24.0366 17.0122 24.2118 16.7443 24.6175C16.36 24.8481 16.1857 24.9003 15.746 24.8086C15.4203 24.6246 15.4203 24.6246 15.1796 24.2422C14.7597 21.3866 16.1059 18.0051 17.7532 15.7373C18.1542 15.2236 18.5801 14.7436 19.0311 14.2735C19.1183 14.1792 19.2055 14.0848 19.2953 13.9876C20.1693 13.0698 21.9789 11.2553 23.3358 11.668Z" fill="black"/>
<path d="M35.5704 11.6679C38.5972 13.2082 41.0816 16.1466 42.1407 19.3711C42.5883 20.9381 42.9983 22.6026 42.8204 24.2422C42.5797 24.6245 42.5797 24.6245 42.254 24.8086C41.9142 24.8794 41.9142 24.8794 41.5743 24.8086C41.2674 24.5794 41.047 24.3934 40.9486 24.0125C40.9169 23.7371 40.9 23.4641 40.8875 23.1872C40.6436 19.8821 39.2048 16.9365 36.7032 14.7265C36.0889 14.2476 35.4388 13.8134 34.7562 13.438C34.4376 13.2539 34.4376 13.2539 34.211 12.914C34.135 12.2173 34.135 12.2173 34.4234 11.852C34.853 11.5235 35.0445 11.5415 35.5704 11.6679Z" fill="black"/>
<path d="M43.8398 39.9882C44.2321 40.2696 44.3785 40.4585 44.5125 40.9228C44.2197 42.0938 42.5142 42.939 41.5394 43.5437C40.1011 44.4054 38.6086 45.1608 37.0359 45.7443C36.8855 45.8007 36.8855 45.8007 36.732 45.8581C36.1327 46.068 35.6392 46.1651 35.0039 46.1054C34.6609 45.8138 34.5665 45.635 34.4941 45.1921C34.5673 44.7621 34.6628 44.6783 35.0039 44.4062C35.3564 44.2426 35.7207 44.1169 36.0872 43.9884C38.45 43.121 40.5959 42.0132 42.5483 40.414C42.984 40.0694 43.2605 39.8892 43.8398 39.9882Z" fill="black"/>
<path d="M14.8399 39.9883C15.1513 40.1641 15.4202 40.3856 15.6966 40.6113C15.8582 40.7376 16.0202 40.8634 16.1825 40.9888C16.3021 41.0813 16.3021 41.0813 16.4242 41.1758C16.9629 41.5815 17.5395 41.9202 18.1251 42.2539C18.2302 42.3145 18.2302 42.3145 18.3375 42.3763C19.3907 42.9778 20.461 43.4578 21.6021 43.8695C23.2526 44.466 23.2526 44.466 23.4493 44.8594C23.4953 45.2735 23.4736 45.4925 23.2794 45.8647C22.9522 46.1429 22.7737 46.1495 22.3537 46.1373C21.8536 46.077 21.3976 45.901 20.9288 45.7231C20.7661 45.6624 20.7661 45.6624 20.6002 45.6005C18.2855 44.7139 15.192 43.344 13.5938 41.3476C13.5493 40.9972 13.5225 40.7761 13.5938 40.4414C13.9731 39.9952 14.2692 39.9125 14.8399 39.9883Z" fill="black"/>
<path d="M29.2373 22.9411C29.4532 22.996 29.4532 22.996 29.7364 23.2367C29.9353 23.618 29.9784 23.8185 29.9063 24.2421C29.672 24.5756 29.5088 24.6775 29.1204 24.8014C28.7057 24.8099 28.5322 24.7194 28.2071 24.4687C28.0455 24.1455 28.0587 23.921 28.0938 23.5624C28.3759 23.0218 28.6534 22.9019 29.2373 22.9411Z" fill="black"/>
<path d="M31.1264 0.128654C31.6969 0.489122 32.1505 0.916036 32.3515 1.57691C32.3996 1.81757 32.4138 2.03546 32.4153 2.28071C32.4165 2.4193 32.4165 2.4193 32.4177 2.5607C32.418 2.6611 32.4183 2.7615 32.4186 2.86494C32.4194 2.97146 32.4201 3.07799 32.4209 3.18775C32.4231 3.54026 32.4244 3.89276 32.4256 4.24528C32.426 4.36593 32.4265 4.48658 32.427 4.61088C32.4293 5.24973 32.431 5.88858 32.432 6.52744C32.4333 7.18564 32.4372 7.8438 32.4417 8.50199C32.4446 9.0095 32.4456 9.51699 32.446 10.0245C32.4465 10.267 32.4478 10.5095 32.45 10.7521C32.4527 11.0926 32.4526 11.4329 32.4518 11.7734C32.454 11.922 32.454 11.922 32.4562 12.0735C32.4471 13.1642 32.03 14.1687 31.2658 14.953C30.4176 15.6327 30.4176 15.6327 29.9064 15.6327C29.9064 16.7168 29.9064 17.8009 29.9064 18.9179C30.2055 18.9552 30.5045 18.9926 30.8126 19.0311C32.0391 19.4983 33.0713 20.456 33.6447 21.6366C34.1624 22.9309 34.2249 24.1399 33.8712 25.4882C34.2353 25.7137 34.5997 25.9387 34.9651 26.1621C35.1785 26.293 35.3914 26.4247 35.6023 26.5595C35.9516 26.7888 35.9516 26.7888 36.3537 26.8219C36.6324 26.7185 36.8381 26.5761 37.0785 26.4015C37.7716 25.9312 38.3335 25.7858 39.1605 25.8754C39.8083 26.0387 40.2884 26.4073 40.7814 26.8405C40.8443 26.8947 40.9072 26.9489 40.9721 27.0048C41.1053 27.1197 41.2384 27.235 41.3711 27.3505C41.7066 27.6422 42.0441 27.9316 42.3815 28.2211C42.4478 28.2781 42.5142 28.3352 42.5825 28.394C42.9874 28.7414 43.397 29.0818 43.8117 29.4176C44.308 29.8203 44.7822 30.2423 45.2547 30.6726C45.6386 31.014 46.0376 31.335 46.437 31.658C46.9306 32.065 47.4123 32.4851 47.8939 32.9062C48.192 33.1664 48.4887 33.4211 48.8018 33.6634C49.273 34.056 49.4674 34.5019 49.5479 35.1065C49.5749 35.8446 49.5038 36.4441 49.0509 37.0429C48.5249 37.5928 47.996 37.8741 47.2384 37.9279C46.1274 37.9084 45.3049 37.3447 44.3782 36.7792C43.9554 36.5221 43.5272 36.2748 43.099 36.0267C42.7585 35.829 42.4188 35.6298 42.0793 35.4304C41.5593 35.126 41.0374 34.8255 40.5137 34.5277C40.4433 34.4876 40.373 34.4476 40.3005 34.4063C39.9589 34.2121 39.6172 34.0182 39.2751 33.8249C36.1496 32.0495 36.1496 32.0495 35.6395 30.4721C35.5169 29.8694 35.5355 29.2716 35.5705 28.66C35.4988 28.6346 35.4271 28.6092 35.3532 28.583C34.8654 28.3741 34.411 28.1132 33.9491 27.8529C33.8544 27.7999 33.7597 27.7469 33.6622 27.6923C33.4296 27.562 33.1972 27.4315 32.965 27.3007C32.8162 27.4115 32.6676 27.5224 32.5189 27.6334C32.4361 27.6952 32.3533 27.757 32.268 27.8206C32.0685 27.9655 32.0685 27.9655 31.9455 28.0936C31.94 28.2701 31.943 28.4469 31.9492 28.6234C31.9532 28.7417 31.9572 28.8599 31.9613 28.9818C31.9666 29.1158 31.9719 29.2498 31.9773 29.3879C31.9826 29.532 31.988 29.676 31.9935 29.8244C32.0809 32.1054 32.2047 34.385 32.3218 36.6645C32.3567 37.3436 32.3912 38.0227 32.4257 38.7019C32.4909 39.9828 32.5563 41.2637 32.6219 42.5446C32.7397 44.8461 32.857 47.1476 32.9742 49.4491C33.0153 50.2559 33.0565 51.0626 33.0978 51.8694C33.1234 52.3686 33.1489 52.8677 33.1743 53.3669C33.1862 53.5988 33.198 53.8306 33.2099 54.0625C33.2261 54.3779 33.2422 54.6934 33.2583 55.0088C33.2631 55.1012 33.2678 55.1937 33.2727 55.2889C33.2899 55.6266 33.3048 55.9625 33.3048 56.3007C33.4332 56.2999 33.5616 56.2992 33.6939 56.2984C34.9024 56.2915 36.1109 56.2864 37.3194 56.2831C37.9408 56.2813 38.5621 56.2789 39.1835 56.275C39.7828 56.2713 40.3822 56.2693 40.9815 56.2684C41.2105 56.2678 41.4394 56.2666 41.6684 56.2647C41.9885 56.2623 42.3085 56.2619 42.6285 56.2621C42.7713 56.2603 42.7713 56.2603 42.9169 56.2584C43.5648 56.2619 43.5648 56.2619 43.8042 56.4528C44.0293 56.7363 44.0522 56.962 44.0666 57.3202C43.9377 57.5838 43.8209 57.7924 43.6134 57.9999C43.4573 58.0111 43.3005 58.0145 43.144 58.0148C43.0422 58.0152 42.9403 58.0156 42.8354 58.0161C42.6657 58.0159 42.6657 58.0159 42.4925 58.0158C42.3137 58.0163 42.3137 58.0163 42.1313 58.0168C41.7286 58.0178 41.3258 58.018 40.923 58.0181C40.6356 58.0187 40.3482 58.0192 40.0608 58.0198C39.2777 58.0213 38.4946 58.0221 37.7114 58.0226C37.2228 58.0229 36.7341 58.0234 36.2455 58.0239C34.8936 58.0252 33.5416 58.0264 32.1897 58.0268C32.0598 58.0268 32.0598 58.0268 31.9273 58.0269C31.8405 58.0269 31.7537 58.0269 31.6643 58.0269C31.4884 58.027 31.3125 58.027 31.1366 58.0271C31.0494 58.0271 30.9621 58.0271 30.8722 58.0272C29.4579 58.0276 28.0436 58.0296 26.6293 58.0322C25.1786 58.0349 23.7279 58.0363 22.2771 58.0365C21.4621 58.0366 20.647 58.0372 19.832 58.0393C19.0656 58.0412 18.2993 58.0414 17.533 58.0404C17.2511 58.0403 16.9692 58.0408 16.6873 58.0419C16.3037 58.0433 15.9201 58.0427 15.5365 58.0415C15.4239 58.0424 15.3112 58.0433 15.1952 58.0443C15.0927 58.0435 14.9903 58.0428 14.8848 58.042C14.7962 58.0421 14.7076 58.0422 14.6163 58.0422C14.3242 57.9883 14.2268 57.8927 14.047 57.66C13.9198 57.242 13.8955 57.0585 14.0895 56.6618C14.2736 56.4139 14.2736 56.4139 14.3869 56.3007C14.7075 56.2899 15.0254 56.2864 15.346 56.2878C15.4969 56.2878 15.4969 56.2878 15.6508 56.2878C15.9848 56.2878 16.3189 56.2887 16.6529 56.2896C16.8839 56.2898 17.1149 56.29 17.3458 56.2901C17.955 56.2905 18.5641 56.2916 19.1733 56.2929C19.7944 56.294 20.4155 56.2946 21.0366 56.2951C22.2562 56.2964 23.4758 56.2983 24.6955 56.3007C24.7001 56.1884 24.7048 56.0761 24.7096 55.9604C24.7539 54.9019 24.8005 53.8435 24.8492 52.7852C24.8742 52.2411 24.8984 51.697 24.9208 51.1528C24.9424 50.6275 24.9662 50.1024 24.9913 49.5773C25.0006 49.377 25.009 49.1767 25.0168 48.9764C25.0277 48.6956 25.0413 48.415 25.0555 48.1344C25.0582 48.0517 25.0608 47.969 25.0634 47.8838C25.0945 47.344 25.2129 47.0488 25.6017 46.6718C26.0197 46.5295 26.198 46.5196 26.6 46.7072C26.8478 46.8983 26.8478 46.8983 26.9611 47.1249C26.9743 47.4362 26.9795 47.7436 26.9783 48.055C26.9781 48.1538 26.9779 48.2526 26.9777 48.3544C26.9666 49.7814 26.8854 51.2063 26.8101 52.6311C26.794 52.9403 26.7788 53.2494 26.7635 53.5586C26.745 53.9289 26.7258 54.2993 26.7066 54.6696C26.6998 54.8075 26.6929 54.9454 26.6859 55.0875C26.6791 55.214 26.6723 55.3405 26.6653 55.4708C26.6595 55.5822 26.6537 55.6936 26.6478 55.8084C26.6212 56.0741 26.6212 56.0741 26.508 56.3007C28.1528 56.3007 29.7976 56.3007 31.4923 56.3007C31.4549 56.2259 31.4176 56.1511 31.379 56.0741C31.3516 55.7256 31.3305 55.3789 31.3138 55.0299C31.3082 54.9203 31.3025 54.8107 31.2967 54.6978C31.2778 54.3283 31.2596 53.9588 31.2414 53.5892C31.228 53.3253 31.2146 53.0613 31.2012 52.7973C31.1647 52.0785 31.1288 51.3598 31.0931 50.641C31.0594 49.9662 31.0253 49.2914 30.9912 48.6167C30.9236 47.2795 30.8565 45.9423 30.7897 44.6051C30.7248 43.3068 30.6597 42.0085 30.5942 40.7102C30.5902 40.6303 30.5862 40.5503 30.582 40.4679C30.5658 40.1466 30.5496 39.8253 30.5334 39.504C30.4598 38.0442 30.3864 36.5844 30.3131 35.1246C30.3056 34.9762 30.2981 34.8277 30.2904 34.6748C30.2476 33.8223 30.2048 32.9698 30.1622 32.1174C30.1493 31.8587 30.1363 31.6 30.1233 31.3413C30.1056 30.9892 30.0881 30.6371 30.0705 30.285C30.0627 30.1301 30.0627 30.1301 30.0547 29.9719C30.0477 29.8309 30.0477 29.8309 30.0406 29.6869C30.0365 29.6056 30.0325 29.5243 30.0283 29.4405C30.0209 29.256 30.0197 29.0713 30.0197 28.8866C29.3468 28.8866 28.6739 28.8866 27.9806 28.8866C27.9723 29.0572 27.9641 29.2279 27.9556 29.4037C27.8776 31.0137 27.7992 32.6237 27.7206 34.2337C27.6802 35.0614 27.6399 35.8891 27.5999 36.7168C27.5649 37.4386 27.5298 38.1604 27.4944 38.8822C27.4757 39.264 27.4571 39.6458 27.4388 40.0277C27.4182 40.455 27.3972 40.8823 27.3762 41.3097C27.3673 41.4974 27.3673 41.4974 27.3582 41.6889C27.3307 42.2393 27.2994 42.7893 27.2551 43.3385C27.2481 43.427 27.2411 43.5154 27.234 43.6065C27.1876 43.8397 27.1876 43.8397 26.9398 44.1937C26.6212 44.4061 26.6212 44.4061 26.2814 44.4769C25.7972 44.3761 25.6636 44.2455 25.3751 43.8397C25.3083 43.3606 25.3473 42.8901 25.3782 42.4087C25.3859 42.2557 25.3933 42.1026 25.4004 41.9496C25.4172 41.6038 25.4358 41.2582 25.4556 40.9125C25.4919 40.277 25.5226 39.6413 25.5531 39.0055C25.6248 37.5251 25.7016 36.045 25.7787 34.5648C25.8249 33.677 25.8708 32.7892 25.9164 31.9013C25.9345 31.5504 25.9529 31.1994 25.9714 30.8485C25.9825 30.6332 25.9936 30.4179 26.0046 30.2027C26.0098 30.107 26.0149 30.0113 26.0201 29.9127C26.0431 29.4595 26.0613 29.0061 26.0704 28.5524C26.0731 28.4299 26.0731 28.4299 26.076 28.305C26.07 28.0663 26.07 28.0663 25.8566 27.8206C25.7725 27.7588 25.6884 27.6971 25.6017 27.6334C25.5176 27.569 25.4335 27.5046 25.3468 27.4383C25.2814 27.3929 25.216 27.3475 25.1486 27.3007C24.292 27.7181 23.4531 28.1342 22.6564 28.66C22.6744 28.7399 22.6923 28.8198 22.7108 28.9021C22.8565 29.7051 22.9116 30.563 22.4707 31.2797C22.0162 31.9058 21.4071 32.273 20.6864 32.5284C20.6011 32.5601 20.5158 32.5919 20.4279 32.6245C20.1142 32.7402 19.7995 32.8526 19.4845 32.9647C19.3531 33.0119 19.2216 33.0591 19.0862 33.1078C18.0667 33.4738 17.0454 33.8345 16.0236 34.194C15.6085 34.3401 15.1935 34.4865 14.7785 34.633C14.3095 34.7985 13.8404 34.964 13.3713 35.1291C13.2306 35.1787 13.0898 35.2282 12.9449 35.2793C12.8087 35.3271 12.6725 35.3749 12.5322 35.4241C12.2495 35.5246 11.968 35.6266 11.6869 35.7313C11.4778 35.8085 11.4778 35.8085 11.2644 35.8872C11.1403 35.9337 11.0162 35.9802 10.8884 36.0282C10.2076 36.2373 9.52194 36.252 8.85024 36.0021C8.1618 35.6028 7.72475 35.0775 7.47671 34.3241C7.34603 33.5848 7.48252 32.9696 7.84974 32.3191C8.5042 31.437 9.68581 30.9731 10.6318 30.4557C11.2669 30.1065 11.8924 29.7416 12.5177 29.3751C12.7478 29.2404 12.9779 29.1058 13.208 28.9711C13.3256 28.9023 13.4431 28.8335 13.5642 28.7626C14.2152 28.3823 14.8672 28.004 15.5197 27.6264C15.642 27.5553 15.7643 27.4842 15.8903 27.411C17.2799 26.6076 18.4999 25.9287 20.1602 26.3705C20.6456 26.5617 21.0775 26.8048 21.5236 27.0741C21.9405 26.8408 22.3553 26.6038 22.7697 26.3661C22.948 26.2664 22.948 26.2664 23.1299 26.1648C23.2985 26.0673 23.2985 26.0673 23.4706 25.9678C23.575 25.9085 23.6794 25.8492 23.787 25.7881C23.8625 25.7265 23.938 25.6649 24.0158 25.6014C24.0302 25.1732 24.0302 25.1732 23.9591 24.858C23.7596 23.4863 23.9526 22.172 24.7202 20.9998C25.4161 20.0705 26.2022 19.4328 27.3009 19.0311C27.5626 18.9938 27.8243 18.9564 28.0939 18.9179C28.0939 17.9085 28.0939 16.8992 28.0939 15.8593C27.7574 15.7845 27.421 15.7097 27.0744 15.6327C26.4421 15.2922 25.9962 14.8437 25.6796 14.1954C25.4021 12.8583 25.7662 11.497 26.011 10.1797C26.0535 9.94747 26.0958 9.71523 26.1381 9.48296C26.2266 8.9981 26.3159 8.51339 26.4058 8.02878C26.5207 7.40931 26.6338 6.78954 26.7463 6.16966C26.8334 5.69072 26.9214 5.21193 27.0096 4.73319C27.0516 4.50475 27.0934 4.27627 27.1349 4.04775C27.1932 3.72806 27.2525 3.40859 27.3121 3.08915C27.3373 2.94921 27.3373 2.94921 27.363 2.80644C27.5033 2.06492 27.6741 1.28031 28.1859 0.700813C28.2381 0.639336 28.2902 0.577858 28.3439 0.514518C29.105 -0.140462 30.2052 -0.249427 31.1264 0.128654ZM29.5017 1.97906C29.2683 2.39259 29.206 2.80865 29.1246 3.27326C29.1058 3.37499 29.087 3.47672 29.0676 3.58153C29.0057 3.91762 28.9456 4.25401 28.8855 4.59043C28.8429 4.82437 28.8002 5.0583 28.7575 5.29221C28.6681 5.78249 28.5795 6.27291 28.4916 6.76346C28.3789 7.3917 28.2647 8.01963 28.1499 8.64748C28.0616 9.13058 27.974 9.61379 27.8866 10.097C27.8447 10.3286 27.8027 10.5601 27.7605 10.7916C27.7016 11.1155 27.6435 11.4395 27.5856 11.7636C27.5681 11.859 27.5506 11.9543 27.5326 12.0526C27.3495 12.9196 27.3495 12.9196 27.5629 13.7423C27.8738 14.0533 28.2037 14.0721 28.6249 14.0892C29.1495 14.0816 29.4869 13.9644 29.9303 13.6928C30.5317 13.0624 30.6526 12.3616 30.6411 11.5199C30.6415 11.4187 30.642 11.3174 30.6424 11.2131C30.6433 10.8813 30.6408 10.5496 30.6383 10.2178C30.638 9.98621 30.6379 9.75466 30.638 9.52311C30.6376 9.03929 30.6358 8.55551 30.6327 8.0717C30.6288 7.45103 30.628 6.8304 30.6282 6.20972C30.6281 5.73227 30.6269 5.25484 30.6252 4.77739C30.6245 4.54845 30.6241 4.3195 30.6239 4.09055C30.6234 3.77139 30.6214 3.45227 30.619 3.13312C30.6191 3.03832 30.6192 2.94351 30.6193 2.84583C30.6144 2.40545 30.6094 2.18718 30.3595 1.81239C29.888 1.73906 29.888 1.73906 29.5017 1.97906ZM26.3947 21.8632C25.8583 22.581 25.5904 23.4628 25.715 24.3554C25.9592 25.3169 26.314 26.0283 27.1381 26.5935C28.0091 27.0916 28.8011 27.2385 29.7931 27.0741C30.7597 26.7694 31.4518 26.2643 31.9455 25.3749C32.3572 24.4884 32.38 23.6227 32.0729 22.6973C31.6882 21.825 31.0321 21.1236 30.1542 20.7304C28.6821 20.2817 27.4087 20.771 26.3947 21.8632ZM38.1759 27.8034C37.6469 28.2552 37.418 28.7145 37.3334 29.4035C37.4327 30.1836 37.7055 30.61 38.2917 31.0964C38.6456 31.3635 39.0234 31.569 39.4149 31.7753C39.5967 31.8737 39.7782 31.9724 39.9597 32.0713C40.1042 32.1501 40.1042 32.1501 40.2517 32.2304C40.7923 32.5298 41.3246 32.8432 41.8576 33.1559C42.9889 33.8188 44.1235 34.4759 45.26 35.13C45.3771 35.1974 45.4942 35.2649 45.6149 35.3343C45.718 35.3937 45.8211 35.453 45.9274 35.5141C46.1264 35.6297 46.323 35.7496 46.5173 35.873C46.856 36.063 47.0824 36.0658 47.465 36.0233C47.5398 35.9486 47.6145 35.8738 47.6915 35.7968C47.6802 35.3503 47.6577 35.0921 47.3544 34.7551C47.2554 34.683 47.1563 34.6108 47.0543 34.5365C46.9415 34.4505 46.8286 34.3645 46.7123 34.2759C46.6509 34.2295 46.5894 34.1831 46.5262 34.1353C46.1734 33.8606 45.8399 33.5638 45.5038 33.2692C45.3586 33.1427 45.2133 33.0163 45.0679 32.8899C44.9958 32.8271 44.9236 32.7643 44.8493 32.6996C44.0515 32.0063 43.2521 31.3153 42.4311 30.6495C41.926 30.2398 41.4342 29.8167 40.9442 29.3893C40.4528 28.9618 39.9608 28.5355 39.4574 28.122C39.3729 28.0524 39.2883 27.9829 39.2012 27.9113C38.7978 27.6378 38.622 27.5896 38.1759 27.8034ZM16.9923 28.8724C16.8548 28.9515 16.7172 29.0305 16.5795 29.1092C16.1869 29.3344 15.7965 29.5634 15.4064 29.7929C15.2316 29.8947 15.0569 29.9965 14.882 30.0982C14.5849 30.2718 14.2887 30.447 13.993 30.623C13.195 31.0967 12.3887 31.5564 11.584 32.0187C11.3469 32.1551 11.11 32.2919 10.8733 32.4292C10.6494 32.5588 10.4249 32.6873 10.1997 32.8146C10.0973 32.8737 9.99482 32.9327 9.88925 32.9935C9.79867 33.045 9.7081 33.0965 9.61478 33.1495C9.36662 33.3024 9.36662 33.3024 9.25381 33.6657C9.27043 33.9766 9.27043 33.9766 9.39541 34.2037C9.84428 34.435 10.372 34.2593 10.836 34.1216C11.1859 34.0032 11.5331 33.8787 11.8801 33.7519C12.0096 33.7054 12.1392 33.659 12.2727 33.611C12.6206 33.486 12.9681 33.3601 13.3155 33.2338C13.6742 33.1036 14.0333 32.9743 14.3923 32.8448C14.9602 32.64 15.5279 32.4345 16.0955 32.2286C16.7685 31.9848 17.4426 31.7439 18.1172 31.5045C18.3741 31.4128 18.631 31.321 18.8879 31.2292C19.0439 31.1735 19.2 31.1182 19.3562 31.0632C19.5676 30.9886 19.7785 30.9127 19.9894 30.8367C20.1039 30.796 20.2183 30.7552 20.3363 30.7132C20.6133 30.5876 20.7706 30.4841 20.9572 30.246C21.0097 29.7442 20.8794 29.3016 20.6669 28.8512C20.1849 28.3198 19.744 28.1285 19.0363 28.0335C18.2612 28.0495 17.6414 28.489 16.9923 28.8724Z" fill="black"/>
<path d="M38.0625 1.69918C38.496 1.84776 38.8995 2.04591 39.3086 2.25143C39.4807 2.3362 39.4807 2.3362 39.6564 2.42268C41.7154 3.45339 43.5305 4.7577 45.1992 6.34371C45.2618 6.40264 45.3244 6.46156 45.3889 6.52226C47.0355 8.08122 48.3688 9.82034 49.5039 11.7812C49.5696 11.8941 49.5696 11.8941 49.6365 12.0093C52.5758 17.1301 53.3899 23.5526 51.901 29.2571C51.7544 29.6019 51.6408 29.7255 51.3164 29.9062C50.8664 29.9828 50.6908 29.9408 50.304 29.6938C49.9555 29.1658 50.0718 28.8107 50.1836 28.207C50.226 27.9563 50.2674 27.7055 50.3088 27.4546C50.3378 27.2813 50.3676 27.1082 50.3982 26.9352C51.3202 21.6655 50.0896 15.8424 47.0392 11.4356C46.7388 11.0136 46.4242 10.6036 46.1055 10.1953C46.0257 10.0901 45.946 9.985 45.8639 9.87667C43.7639 7.19388 40.9823 5.09036 37.8577 3.74721C37.3468 3.52093 36.9978 3.33121 36.7031 2.832C36.7099 2.43918 36.7473 2.16497 36.9368 1.81954C37.3012 1.61968 37.6623 1.64289 38.0625 1.69918Z" fill="black"/>
<path d="M20.8438 1.69934C21.1341 1.93298 21.1341 1.93298 21.2969 2.26574C21.304 2.66931 21.304 2.66931 21.1837 3.05871C20.7275 3.50156 20.191 3.72435 19.619 3.97912C17.4256 4.98977 15.5591 6.3801 13.8204 8.04309C13.7141 8.14341 13.6078 8.24373 13.4982 8.34709C9.56261 12.1556 7.43362 17.6916 7.32362 23.1163C7.31087 24.9134 7.46915 26.6913 7.88182 28.4426C7.9522 28.7622 7.98141 29.0152 7.92975 29.34C7.65153 29.7164 7.48504 29.881 7.0235 29.9772C6.55842 29.8803 6.41656 29.7071 6.11725 29.34C5.99168 29.0189 5.92942 28.6946 5.86944 28.3558C5.8513 28.2602 5.83316 28.1645 5.81446 28.0659C5.7609 27.7736 5.71167 27.481 5.66412 27.1876C5.65052 27.1062 5.63692 27.0248 5.62291 26.941C4.67338 20.9904 6.25675 14.7229 9.73207 9.84187C10.3818 8.94686 11.0709 8.10485 11.8408 7.30969C11.9565 7.19001 12.0713 7.06956 12.1855 6.94849C14.0945 4.92602 16.3295 3.41262 18.8189 2.18786C18.9169 2.13862 19.0148 2.08938 19.1157 2.03865C19.7236 1.74967 20.1699 1.62355 20.8438 1.69934Z" fill="black"/>
<path d="M35.5702 11.6679C38.597 13.2082 41.0813 16.1466 42.1405 19.3711C42.588 20.9381 42.9981 22.6026 42.8202 24.2422C42.5794 24.6245 42.5794 24.6245 42.2538 24.8086C41.9139 24.8794 41.9139 24.8794 41.5741 24.8086C41.2672 24.5794 41.0467 24.3934 40.9483 24.0125C40.9167 23.7371 40.8998 23.4641 40.8873 23.1872C40.6434 19.8821 39.2046 16.9365 36.703 14.7265C36.0886 14.2476 35.4385 13.8134 34.756 13.438C34.4373 13.2539 34.4373 13.2539 34.2108 12.914C34.1348 12.2173 34.1348 12.2173 34.4232 11.852C34.8527 11.5235 35.0442 11.5415 35.5702 11.6679Z" fill="black"/>
<path d="M23.3358 11.668C23.5978 11.8521 23.5978 11.8521 23.7889 12.1211C23.8456 12.5176 23.8456 12.5176 23.7889 12.9141C23.4564 13.3163 23.0412 13.5618 22.5995 13.8274C21.7718 14.3432 21.0787 14.9447 20.3905 15.6329C20.308 15.7154 20.2255 15.7979 20.1405 15.8829C18.1922 17.9542 17.1902 20.7518 17.0699 23.5626C17.0367 24.0366 17.0122 24.2118 16.7443 24.6175C16.36 24.8481 16.1857 24.9003 15.746 24.8086C15.4203 24.6246 15.4203 24.6246 15.1796 24.2422C14.7597 21.3866 16.1059 18.0051 17.7532 15.7373C18.1542 15.2236 18.5801 14.7436 19.0311 14.2735C19.1183 14.1792 19.2055 14.0848 19.2953 13.9876C20.1693 13.0698 21.9789 11.2553 23.3358 11.668Z" fill="black"/>
<path d="M29.2373 22.9411C29.4532 22.996 29.4532 22.996 29.7364 23.2367C29.9353 23.618 29.9784 23.8185 29.9063 24.2421C29.672 24.5756 29.5088 24.6775 29.1204 24.8014C28.7057 24.8099 28.5322 24.7194 28.2071 24.4687C28.0455 24.1455 28.0587 23.921 28.0938 23.5624C28.3759 23.0218 28.6534 22.9019 29.2373 22.9411Z" fill="black"/>
<path d="M43.8398 39.9882C44.2321 40.2696 44.3785 40.4585 44.5125 40.9228C44.2197 42.0938 42.5142 42.939 41.5394 43.5437C40.1011 44.4054 38.6086 45.1608 37.0359 45.7443C36.8855 45.8007 36.8855 45.8007 36.732 45.8581C36.1327 46.068 35.6392 46.1651 35.0039 46.1054C34.6609 45.8138 34.5665 45.635 34.4941 45.1921C34.5673 44.7621 34.6628 44.6783 35.0039 44.4062C35.3564 44.2426 35.7207 44.1169 36.0872 43.9884C38.45 43.121 40.5959 42.0132 42.5483 40.414C42.984 40.0694 43.2605 39.8892 43.8398 39.9882Z" fill="black"/>
<path d="M14.8399 39.9883C15.1513 40.1641 15.4202 40.3856 15.6966 40.6113C15.8582 40.7376 16.0202 40.8634 16.1825 40.9888C16.3021 41.0813 16.3021 41.0813 16.4242 41.1758C16.9629 41.5815 17.5395 41.9202 18.1251 42.2539C18.2302 42.3145 18.2302 42.3145 18.3375 42.3763C19.3907 42.9778 20.461 43.4578 21.6021 43.8695C23.2526 44.466 23.2526 44.466 23.4493 44.8594C23.4953 45.2735 23.4736 45.4925 23.2794 45.8647C22.9522 46.1429 22.7737 46.1495 22.3537 46.1373C21.8536 46.077 21.3976 45.901 20.9288 45.7231C20.7661 45.6624 20.7661 45.6624 20.6002 45.6005C18.2855 44.7139 15.192 43.344 13.5938 41.3476C13.5493 40.9972 13.5225 40.7761 13.5938 40.4414C13.9731 39.9952 14.2692 39.9125 14.8399 39.9883Z" fill="black"/>
</g>
<defs>
<clipPath id="clip0_255_384">
<rect width="58" height="58" fill="white"/>
</clipPath>
</defs>
</svg>
