<svg width="58" height="58" viewBox="0 0 58 58" fill="none" xmlns="http://www.w3.org/2000/svg">
<g clip-path="url(#clip0_255_370)">
<path d="M18.1122 13.6485C18.2972 13.6479 18.4822 13.6471 18.6672 13.6461C19.1643 13.644 19.6614 13.6448 20.1585 13.6463C20.6821 13.6474 21.2056 13.6463 21.7291 13.6456C22.6078 13.6448 23.4864 13.6459 24.3651 13.6481C25.3769 13.6505 26.3886 13.6497 27.4004 13.6472C28.2735 13.6452 29.1466 13.6449 30.0197 13.6461C30.5392 13.6468 31.0587 13.6469 31.5783 13.6454C32.067 13.644 32.5557 13.645 33.0444 13.6476C33.2224 13.6482 33.4003 13.648 33.5783 13.647C35.9849 13.6346 38.1234 14.3868 39.875 16.086C40.3167 16.555 40.7212 17.0541 41.1211 17.5587C41.1713 17.622 41.2215 17.6852 41.2732 17.7504C41.4777 18.0089 41.6814 18.2681 41.884 18.5281C42.2838 19.0412 42.6921 19.547 43.1035 20.0509C43.5623 20.613 44.0164 21.1782 44.4629 21.7501C45.0442 22.4946 45.639 23.2277 46.236 23.9595C46.2912 24.0274 46.3464 24.0954 46.4032 24.1653C46.5435 24.3371 46.6857 24.5073 46.8281 24.6773C47.0117 24.922 47.0117 24.922 47.0117 25.1485C47.0897 25.1606 47.1678 25.1727 47.2481 25.1852C50.7531 25.7467 54.333 26.4156 56.5597 29.4683C57.4798 30.8957 58.0349 32.4187 58.0329 34.1191C58.0341 34.2668 58.0341 34.2668 58.0352 34.4176C58.0374 34.7397 58.0378 35.0619 58.0381 35.3841C58.0388 35.6096 58.0396 35.8351 58.0404 36.0606C58.0417 36.5316 58.0421 37.0027 58.042 37.4737C58.042 38.0767 58.0451 38.6796 58.049 39.2826C58.0515 39.7476 58.052 40.2126 58.0518 40.6777C58.0521 40.9 58.0531 41.1224 58.0549 41.3447C58.0571 41.6554 58.0564 41.966 58.0551 42.2767C58.0563 42.3679 58.0576 42.4592 58.0589 42.5533C58.0523 43.1473 57.9354 43.4793 57.5469 43.9532C57.0438 44.3887 56.5163 44.3372 55.8844 44.3263C55.7796 44.3258 55.6748 44.3253 55.5668 44.3248C55.2332 44.3229 54.8997 44.3186 54.5662 44.3143C54.3396 44.3126 54.1129 44.311 53.8863 44.3097C53.3317 44.3059 52.7772 44.3001 52.2227 44.2931C52.2024 44.3817 52.1822 44.4704 52.1613 44.5618C51.8282 45.9644 51.2683 47.1761 50.2969 48.2579C50.2144 48.3509 50.1319 48.4439 50.0469 48.5398C48.6335 50.0445 46.6442 51.045 44.5647 51.128C42.1223 51.1651 39.8624 50.6942 38.0572 48.9446C37.9063 48.7929 37.7577 48.6387 37.6094 48.4845C37.4966 48.373 37.4966 48.373 37.3815 48.2592C36.4657 47.2982 35.4571 45.6563 35.4571 44.2931C31.1954 44.2931 26.9338 44.2931 22.543 44.2931C22.4308 44.7417 22.3187 45.1903 22.2032 45.6524C21.816 46.6137 21.3107 47.4856 20.6172 48.2579C20.5347 48.3509 20.4522 48.4439 20.3672 48.5398C18.9538 50.0445 16.9645 51.045 14.885 51.128C12.4426 51.1651 10.1827 50.6942 8.37756 48.9446C8.22657 48.7929 8.07806 48.6387 7.92971 48.4845C7.81691 48.373 7.81691 48.373 7.70182 48.2592C6.78603 47.2982 5.77737 45.6563 5.77737 44.2931C5.6368 44.2954 5.49623 44.2978 5.3514 44.3003C4.82827 44.3085 4.30513 44.3137 3.78195 44.318C3.55582 44.3202 3.3297 44.3233 3.10359 44.3272C2.77794 44.3328 2.45239 44.3353 2.1267 44.3373C1.97586 44.3408 1.97586 44.3408 1.82197 44.3444C1.19717 44.3446 0.825773 44.2714 0.339869 43.8399C-0.080007 43.3165 -0.049607 42.8185 -0.0475437 42.1773C-0.0485031 42.0674 -0.0494626 41.9576 -0.0504511 41.8444C-0.0531017 41.481 -0.0532141 41.1177 -0.053075 40.7544C-0.0538799 40.5004 -0.0547521 40.2465 -0.0556886 39.9926C-0.0572128 39.4596 -0.0573891 38.9267 -0.0567257 38.3937C-0.0560615 37.7151 -0.059506 37.0366 -0.0641013 36.358C-0.0670512 35.8329 -0.0673578 35.3078 -0.0669465 34.7826C-0.0671368 34.5328 -0.0682161 34.2829 -0.070248 34.0331C-0.0877834 31.6079 0.305569 29.7183 2.01431 27.8956C2.83716 27.0612 3.72357 26.3544 4.89383 26.1107C6.29948 25.8104 6.29948 25.8104 7.39815 24.9402C7.91575 24.0549 8.23878 23.0921 8.55307 22.1203C8.70779 21.6502 8.87822 21.1857 9.04644 20.7204C9.17725 20.3577 9.30478 19.9949 9.42669 19.6291C9.84148 18.4024 10.4006 17.2723 11.3069 16.3338C11.3652 16.2724 11.4236 16.2109 11.4837 16.1475C13.2926 14.2875 15.5954 13.6342 18.1122 13.6485ZM13.9336 18.6915C13.2502 19.5242 12.8466 20.4366 12.4539 21.4315C12.3949 21.578 12.3358 21.7244 12.2765 21.8708C12.1616 22.1555 12.0476 22.4405 11.9341 22.7258C11.8053 23.0491 11.6748 23.3716 11.5428 23.6936C11.2346 24.3452 11.2346 24.3452 11.1016 25.0353C15.7371 25.0353 20.3725 25.0353 25.1485 25.0353C25.1485 22.4185 25.1485 19.8017 25.1485 17.1056C23.9242 17.1009 22.6999 17.0962 21.4385 17.0914C21.0546 17.0893 20.6708 17.0873 20.2753 17.0852C19.9674 17.0845 19.6595 17.0839 19.3517 17.0834C19.2736 17.0828 19.1955 17.0823 19.115 17.0816C17.1748 17.0677 15.3543 17.2334 13.9336 18.6915ZM28.5469 17.1056C28.5469 19.7224 28.5469 22.3392 28.5469 25.0353C33.145 25.0353 37.7431 25.0353 42.4805 25.0353C42.0298 24.4343 41.576 23.845 41.0999 23.2652C40.6291 22.6891 40.1629 22.11 39.7051 21.5235C39.2464 20.9375 38.7842 20.3544 38.3174 19.7748C38.2586 19.7011 38.1999 19.6274 38.1393 19.5515C37.5301 18.7983 36.9448 18.1327 36.0659 17.6932C35.943 17.6294 35.82 17.5656 35.6934 17.4998C34.2535 16.9165 32.5793 17.0793 31.0603 17.0914C30.2309 17.0961 29.4015 17.1008 28.5469 17.1056ZM4.11399 30.8148C3.29412 32.0483 3.38231 33.4579 3.3874 34.8766C3.38761 35.0505 3.38777 35.2245 3.38789 35.3984C3.38832 35.8536 3.38943 36.3087 3.39068 36.7638C3.39185 37.2294 3.39236 37.6949 3.39293 38.1604C3.39414 39.0718 3.39613 39.9832 3.39846 40.8946C4.1835 40.8946 4.96854 40.8946 5.77737 40.8946C5.87316 40.6049 5.96896 40.3152 6.06765 40.0167C6.55026 38.6251 7.22756 37.524 8.26956 36.4767C8.34476 36.3975 8.41996 36.3184 8.49745 36.2368C10.104 34.6639 12.3371 34.1363 14.5177 34.1579C16.8434 34.2284 18.7939 35.1543 20.3907 36.8165C20.491 36.9155 20.491 36.9155 20.5933 37.0165C21.6195 38.103 22.0799 39.5054 22.543 40.8946C26.8046 40.8946 31.0663 40.8946 35.4571 40.8946C35.6814 40.2591 35.9057 39.6236 36.1367 38.9688C36.6327 38.0051 37.1867 37.2431 37.9492 36.4767C38.0244 36.3975 38.0997 36.3184 38.1771 36.2368C39.7837 34.6639 42.0167 34.1363 44.1974 34.1579C46.523 34.2284 48.4736 35.1543 50.0703 36.8165C50.1707 36.9155 50.1707 36.9155 50.273 37.0165C51.2937 38.0972 51.8021 39.5016 52.2227 40.8946C53.0077 40.8946 53.7928 40.8946 54.6016 40.8946C54.6067 40.0782 54.6109 39.2617 54.6133 38.4453C54.6145 38.066 54.6162 37.6867 54.6187 37.3074C54.6215 36.8696 54.6227 36.4317 54.6237 35.9939C54.6249 35.8602 54.626 35.7266 54.6273 35.5889C54.6275 33.833 54.4 32.2002 53.1502 30.8692C52.1901 30.0102 51.1846 29.6655 49.9571 29.3399C49.8832 29.3203 49.8093 29.3006 49.7332 29.2803C47.2459 28.6237 44.8916 28.2966 42.322 28.3119C41.877 28.3135 41.432 28.3098 40.987 28.3069C40.1219 28.3021 39.2568 28.302 38.3916 28.3039C37.6872 28.3053 36.9828 28.305 36.2784 28.3036C36.1771 28.3034 36.0757 28.3032 35.9714 28.303C35.7654 28.3026 35.5594 28.3021 35.3535 28.3017C33.4354 28.298 31.5173 28.2999 29.5992 28.3038C27.8527 28.3071 26.1063 28.3038 24.3598 28.2972C22.5549 28.2905 20.7499 28.2881 18.945 28.2902C18.7401 28.2905 18.5353 28.2907 18.3304 28.2909C18.1793 28.2911 18.1793 28.2911 18.0252 28.2913C17.3231 28.2917 16.621 28.2895 15.9189 28.2862C15.0612 28.2822 14.2036 28.2823 13.3459 28.2874C12.9101 28.2899 12.4746 28.2908 12.0389 28.2865C9.33137 28.2617 5.96048 28.5356 4.11399 30.8148ZM10.0838 39.5658C9.17497 40.797 9.05421 42.1317 9.17581 43.6134C9.45926 44.9869 10.3304 46.0784 11.4414 46.8985C12.7222 47.611 14.1156 47.7978 15.555 47.5008C16.8569 47.0551 17.9769 46.1898 18.6507 44.9785C19.2325 43.7264 19.4162 42.2188 18.9605 40.8875C18.335 39.465 17.3519 38.4273 15.9098 37.8219C13.7202 37.0384 11.5503 37.8712 10.0838 39.5658ZM39.7635 39.5658C38.8547 40.797 38.7339 42.1317 38.8555 43.6134C39.1389 44.9869 40.0101 46.0784 41.1211 46.8985C42.4019 47.611 43.7952 47.7978 45.2346 47.5008C46.5366 47.0551 47.6566 46.1898 48.3304 44.9785C48.9122 43.7264 49.0959 42.2188 48.6402 40.8875C48.0147 39.465 47.0316 38.4273 45.5895 37.8219C43.3999 37.0384 41.2299 37.8712 39.7635 39.5658Z" fill="black"/>
<path d="M1.71779 6.86438C1.92535 6.86223 1.92535 6.86223 2.13711 6.86003C2.28569 6.86036 2.43426 6.86069 2.58734 6.86103C2.74237 6.86052 2.8974 6.85992 3.05242 6.85923C3.37685 6.85822 3.70125 6.8585 4.02567 6.85962C4.44025 6.86092 4.85471 6.85864 5.26927 6.85533C5.58931 6.85324 5.90932 6.85328 6.22936 6.85393C6.45613 6.85395 6.6829 6.85204 6.90967 6.8501C8.1897 6.8599 8.18969 6.8599 8.72267 7.36328C9.18217 7.9549 9.15019 8.57011 9.06251 9.28906C8.81504 9.8115 8.55372 10.0527 8.04298 10.3086C7.7128 10.3525 7.7128 10.3525 7.34473 10.3544C7.13717 10.3565 7.13717 10.3565 6.92541 10.3587C6.77683 10.3584 6.62826 10.3581 6.47518 10.3577C6.32015 10.3582 6.16512 10.3588 6.0101 10.3595C5.68567 10.3605 5.36128 10.3602 5.03685 10.3591C4.62227 10.3578 4.20781 10.3601 3.79325 10.3634C3.47321 10.3655 3.1532 10.3655 2.83316 10.3648C2.60639 10.3648 2.37962 10.3667 2.15285 10.3686C0.872825 10.3588 0.872825 10.3588 0.339854 9.85546C-0.119649 9.26384 -0.0876669 8.64863 9.98378e-06 7.92968C0.367431 7.15402 0.874241 6.86863 1.71779 6.86438Z" fill="black"/>
<path d="M2.33953 13.6579C2.46787 13.6573 2.5962 13.6567 2.72843 13.6561C2.99951 13.6554 3.2706 13.6555 3.54168 13.6565C3.9559 13.6575 4.36995 13.6542 4.78415 13.6506C5.04781 13.6504 5.31147 13.6505 5.57513 13.6508C5.69869 13.6496 5.82226 13.6483 5.94957 13.647C6.64479 13.6533 7.06299 13.6911 7.58985 14.1602C8.04936 14.7518 8.01737 15.367 7.9297 16.0859C7.68383 16.605 7.43131 16.8731 6.91017 17.1055C6.47033 17.1576 6.03268 17.1558 5.59017 17.1546C5.46184 17.1552 5.3335 17.1558 5.20128 17.1564C4.9302 17.1571 4.65911 17.157 4.38803 17.156C3.9738 17.155 3.55976 17.1583 3.14556 17.1619C2.8819 17.1621 2.61824 17.162 2.35458 17.1617C2.23101 17.1629 2.10745 17.1642 1.98014 17.1655C1.28492 17.1592 0.866714 17.1213 0.339854 16.6523C-0.119649 16.0607 -0.0876669 15.4455 9.98005e-06 14.7266C0.506285 13.6578 1.27408 13.655 2.33953 13.6579Z" fill="black"/>
<path d="M13.9019 6.85958C14.1521 6.86054 14.402 6.85728 14.6521 6.85369C14.8125 6.8535 14.9729 6.85357 15.1333 6.85391C15.278 6.8537 15.4227 6.85349 15.5718 6.85327C16.1477 6.9349 16.5073 7.17636 16.8618 7.63272C17.0983 8.17073 17.0624 8.71382 16.9923 9.28901C16.7454 9.81031 16.4855 10.0577 15.9728 10.3085C15.4558 10.3698 14.9386 10.3621 14.4186 10.3591C14.1684 10.3581 13.9186 10.3614 13.6684 10.365C13.508 10.3651 13.3476 10.3651 13.1872 10.3647C12.9701 10.3651 12.9701 10.3651 12.7487 10.3654C12.1729 10.2838 11.8132 10.0423 11.4588 9.58593C11.2222 9.04792 11.2581 8.50482 11.3282 7.92964C11.868 6.79017 12.7877 6.85302 13.9019 6.85958Z" fill="black"/>
</g>
<defs>
<clipPath id="clip0_255_370">
<rect width="58" height="58" fill="white"/>
</clipPath>
</defs>
</svg>
