<svg width="58" height="58" viewBox="0 0 58 58" fill="none" xmlns="http://www.w3.org/2000/svg">
<g clip-path="url(#clip0_255_401)">
<path d="M27.7326 -0.0496091C27.8618 -0.0485869 27.9909 -0.0475647 28.124 -0.0465116C30.1729 -0.0045353 32.243 0.726275 33.7578 2.1523C33.8396 2.24604 33.9213 2.33979 34.0056 2.43638C34.252 2.71622 34.4713 2.95811 34.7773 3.17183C35.195 3.19742 35.521 3.0857 35.9101 2.94526C38.353 2.37211 40.8168 2.94615 42.9336 4.19136C43.3033 4.4294 43.6288 4.68782 43.9531 4.98433C44.0541 5.07501 44.1552 5.16569 44.2593 5.25912C45.4254 6.35994 46.3894 7.77862 46.7391 9.36822C46.9275 9.67644 46.9908 9.68519 47.3276 9.77621C47.5099 9.81599 47.6925 9.85409 47.8755 9.89082C50.5425 10.5155 52.6599 12.1323 54.1285 14.4403C55.1206 16.075 55.5751 17.8744 55.5644 19.7817C55.5637 19.9198 55.563 20.0579 55.5622 20.2002C55.5071 22.9502 54.4009 25.2945 52.5014 27.2583C51.2846 28.4016 49.7759 29.3064 48.1445 29.6796C48.1511 29.7937 48.1576 29.9077 48.1644 30.0252C48.2628 32.517 47.4215 34.8377 45.7656 36.7031C45.7057 36.779 45.6459 36.8549 45.5842 36.9332C44.1399 38.726 41.7973 39.9101 39.5351 40.2148C36.9121 40.4411 34.5011 40.1062 32.2851 38.6289C32.2958 39.4825 32.3079 40.3362 32.3211 41.1899C32.3254 41.479 32.3293 41.7681 32.3329 42.0572C32.3515 43.5341 32.3827 45.0059 32.5042 46.4785C32.5131 46.5869 32.522 46.6953 32.5312 46.807C32.8455 50.2769 34.4244 53.3959 36.623 56.0476C36.871 56.3723 36.9215 56.5722 36.9297 56.9804C36.7654 57.4732 36.6862 57.7091 36.25 58C35.9444 58.0294 35.9444 58.0294 35.5678 58.031C35.4252 58.0321 35.2826 58.0333 35.1356 58.0344C34.9773 58.0345 34.8189 58.0346 34.6605 58.0347C34.494 58.0355 34.3275 58.0365 34.1609 58.0375C33.7083 58.04 33.2556 58.041 32.8029 58.0416C32.5202 58.042 32.2374 58.0427 31.9547 58.0435C30.9683 58.0463 29.982 58.0478 28.9956 58.0482C28.076 58.0486 27.1564 58.052 26.2368 58.0567C25.4474 58.0606 24.6581 58.0624 23.8687 58.0625C23.3972 58.0625 22.9257 58.0635 22.4542 58.0668C22.0106 58.0697 21.5672 58.07 21.1236 58.0682C20.9609 58.068 20.7982 58.0687 20.6355 58.0705C20.4132 58.0728 20.191 58.0713 19.9687 58.0696C19.8444 58.0698 19.72 58.07 19.5919 58.0703C19.1463 57.9765 18.9764 57.7804 18.6914 57.4335C18.5249 56.9549 18.5695 56.6241 18.7901 56.1671C18.9297 55.9419 19.0859 55.7599 19.2649 55.5644C20.7484 53.9281 21.7655 51.8125 22.4225 49.7174C22.5408 49.3649 22.6345 49.181 22.9301 48.949C23.3461 48.7715 23.6853 48.7256 24.1289 48.8242C24.4337 49.0706 24.6336 49.2672 24.8086 49.6171C24.8638 50.2949 24.7082 50.8018 24.4687 51.4226C24.4332 51.5164 24.3977 51.6102 24.3612 51.7069C23.8108 53.1283 23.0855 54.4158 22.3164 55.7343C25.9051 55.7343 29.4939 55.7343 33.1914 55.7343C32.7802 55.0241 32.369 54.3138 31.9453 53.582C31.0823 51.7712 30.45 49.9014 30.1328 47.9179C30.1128 47.7964 30.0928 47.6749 30.0722 47.5497C29.9899 46.876 30.011 46.1987 30.0186 45.5214C30.0225 45.1692 30.0251 44.817 30.0279 44.4648C30.0294 44.2752 30.0309 44.0857 30.0325 43.8961C30.0429 42.6759 30.0448 41.4557 30.0474 40.2354C30.0499 39.0496 30.055 37.864 30.068 36.6782C30.0784 35.734 30.0831 34.79 30.0813 33.8457C30.0805 33.3473 30.0825 32.8493 30.0914 32.3509C30.1628 29.4447 30.1628 29.4447 28.7053 27.0007C28.577 26.8741 28.4487 26.7475 28.3203 26.621C27.8672 26.0943 27.8672 26.0943 27.8672 25.8281C27.7924 25.8281 27.7176 25.8281 27.6406 25.8281C27.5957 25.9247 27.5957 25.9247 27.5499 26.0232C27.405 26.2984 27.2387 26.535 27.0529 26.7843C26.9831 26.8784 26.9133 26.9726 26.8414 27.0695C26.7687 27.1668 26.696 27.2642 26.6211 27.3645C26.477 27.5581 26.3331 27.7517 26.1892 27.9455C26.1254 28.031 26.0616 28.1165 25.9958 28.2046C25.7233 28.5767 25.5732 28.7882 25.573 29.2491C25.5721 29.3944 25.5721 29.3944 25.5712 29.5427C25.5719 29.7016 25.5719 29.7016 25.5726 29.8637C25.5722 29.9755 25.5718 30.0873 25.5714 30.2026C25.5706 30.4457 25.5703 30.6888 25.5704 30.9319C25.5706 31.3166 25.5691 31.7012 25.5672 32.0859C25.5619 33.1797 25.5591 34.2735 25.5584 35.3673C25.5578 36.0361 25.5551 36.7049 25.551 37.3737C25.5499 37.6287 25.5496 37.8837 25.5502 38.1387C25.551 38.4953 25.5491 38.8519 25.5465 39.2085C25.5479 39.3667 25.5479 39.3667 25.5493 39.5281C25.5432 40.0058 25.5302 40.2608 25.2722 40.6742C24.9028 41.0174 24.6379 41.0455 24.1333 41.041C23.7742 40.9893 23.5829 40.8092 23.3359 40.5546C23.1623 40.2074 23.211 39.8446 23.2155 39.4643C23.2161 39.3843 23.2166 39.3043 23.2171 39.2218C23.2184 39.0242 23.2205 38.8265 23.2226 38.6289C23.1579 38.6714 23.0932 38.7138 23.0266 38.7576C20.6933 40.2303 17.7779 40.6569 15.083 40.0576C13.5008 39.6427 12.0985 38.922 10.875 37.8359C10.799 37.776 10.7231 37.7161 10.6449 37.6545C8.83531 36.1968 7.70393 33.8766 7.36325 31.6054C7.31132 30.9621 7.32616 30.3233 7.36325 29.6796C7.29725 29.663 7.23124 29.6463 7.16324 29.6292C5.82448 29.2629 4.70924 28.6102 3.62497 27.7539C3.54334 27.6898 3.46171 27.6256 3.37761 27.5596C1.4653 25.9753 0.196896 23.496 -0.0359859 21.0293C-0.0534528 20.641 -0.0588473 20.2553 -0.056673 19.8666C-0.0559429 19.7285 -0.0552127 19.5904 -0.0544605 19.4482C-0.00679144 17.0691 0.794289 14.9257 2.37887 13.1406C2.43874 13.0646 2.49862 12.9887 2.5603 12.9105C3.72958 11.459 5.49097 10.3656 7.31684 10.0179C8.22062 9.86124 8.22062 9.86124 8.86865 9.26423C9.02364 8.90222 9.12473 8.52716 9.22393 8.14669C9.54392 7.07986 10.3442 6.21794 11.1015 5.43745C11.164 5.36663 11.2265 5.29581 11.2909 5.22284C12.5071 3.88923 14.6249 2.9323 16.421 2.80897C16.7934 2.79756 17.1648 2.7955 17.5373 2.79658C17.7241 2.79384 17.7241 2.79384 17.9146 2.79105C18.688 2.7906 19.3605 2.88537 20.1015 3.10979C20.406 3.17514 20.5573 3.17387 20.8437 3.05855C21.0373 2.87464 21.2228 2.68209 21.403 2.48506C23.0497 0.764243 25.381 -0.0720492 27.7326 -0.0496091ZM22.8615 4.38252C21.5425 5.76928 21.0771 7.40262 20.8884 9.25096C20.8437 9.62886 20.8437 9.62886 20.7304 9.9687C20.3965 10.08 20.1724 10.0972 19.8242 10.0961C19.677 10.0966 19.677 10.0966 19.5268 10.097C19.2578 10.082 19.2578 10.082 18.9179 9.9687C18.4823 8.66181 18.853 7.15531 19.2578 5.89058C19.297 5.73992 19.3356 5.58905 19.3711 5.43745C18.0207 4.85117 16.4481 5.0891 15.0947 5.56489C13.3859 6.27987 12.1829 7.56411 11.3281 9.17573C11.287 9.3259 11.2485 9.47685 11.2148 9.62886C11.3202 9.65371 11.3202 9.65371 11.4278 9.67905C11.7462 9.7542 12.0646 9.82959 12.383 9.90498C12.4936 9.93105 12.6043 9.95711 12.7182 9.98397C12.8245 10.0092 12.9307 10.0343 13.0401 10.0603C13.138 10.0834 13.2359 10.1066 13.3368 10.1304C13.5381 10.1812 13.7366 10.2429 13.9336 10.3085C14.0978 10.8012 14.1033 11.2665 14.0468 11.7812C13.8911 12.0786 13.8911 12.0786 13.5937 12.2343C12.9419 12.3233 12.3442 12.2202 11.7122 12.0666C9.77506 11.6456 7.78286 12.0817 6.0791 13.0538C5.54874 13.4053 5.10017 13.8318 4.6445 14.2734C4.57353 14.3347 4.50256 14.3961 4.42944 14.4592C3.26591 15.5017 2.47514 17.3004 2.35882 18.8442C2.30154 21.1105 2.5666 23.0799 4.13473 24.851C4.30374 25.0265 4.47359 25.2013 4.6445 25.375C4.73628 25.481 4.73628 25.481 4.82991 25.5891C6.12433 27.0368 8.18794 27.6335 10.0645 27.7497C10.5934 27.7588 11.106 27.6764 11.6263 27.5848C12.1662 27.5034 12.6267 27.4441 13.1264 27.6831C13.3672 27.8671 13.3672 27.8671 13.4804 28.0937C13.5034 28.3229 13.5034 28.3229 13.5088 28.5893C13.5117 28.6766 13.5146 28.764 13.5176 28.8539C13.4696 29.1887 13.3808 29.3287 13.1406 29.5664C12.0808 29.9886 10.8687 29.9804 9.74216 30.0195C9.61376 31.735 10.1723 33.4077 11.2383 34.753C11.4871 35.034 11.7445 35.3027 12.0078 35.5703C12.0996 35.6763 12.0996 35.6763 12.1932 35.7844C13.4894 37.2341 15.5526 37.8285 17.4312 37.9425C19.1763 37.991 20.8986 37.3553 22.3164 36.3632C22.3903 36.3147 22.4641 36.2661 22.5402 36.2161C22.9114 35.9404 23.1738 35.7178 23.3218 35.2709C23.3748 34.9055 23.3983 34.5494 23.4107 34.1804C23.4204 33.9747 23.4204 33.9747 23.4303 33.765C23.4438 33.3933 23.4517 33.0223 23.4545 32.6504C23.4557 32.4966 23.4574 32.3428 23.4598 32.189C23.5128 28.6227 22.3069 25.9999 20.3906 22.996C20.0184 22.9584 20.0184 22.9584 19.716 23.294C19.5801 23.4307 19.4451 23.5684 19.3109 23.7067C19.2393 23.7791 19.1676 23.8515 19.0938 23.926C18.8645 24.1581 18.6363 24.3912 18.4082 24.6245C18.1799 24.8567 17.9514 25.0887 17.7225 25.3205C17.5801 25.4648 17.438 25.6096 17.2963 25.7547C17.2316 25.8204 17.167 25.8862 17.1003 25.9539C17.0438 26.0118 16.9872 26.0696 16.9289 26.1292C16.5672 26.4658 16.3389 26.5369 15.8593 26.529C15.7612 26.5283 15.6631 26.5275 15.562 26.5268C15.2929 26.5078 15.2929 26.5078 14.9531 26.3945C14.7856 25.892 14.731 25.4443 14.8398 24.9218C15.0999 24.5348 15.4043 24.2181 15.7461 23.9023C15.2876 23.4314 14.8045 22.9955 14.3088 22.5642C14.1939 22.4626 14.1939 22.4626 14.0767 22.3591C14.0033 22.2952 13.93 22.2313 13.8544 22.1655C13.788 22.1074 13.7216 22.0493 13.6532 21.9894C13.4856 21.841 13.4856 21.841 13.2539 21.8632C13.1425 21.5292 13.1254 21.3051 13.1264 20.957C13.126 20.8098 13.126 20.8098 13.1255 20.6596C13.1406 20.3906 13.1406 20.3906 13.2539 20.0507C13.7744 19.8772 14.1857 19.8026 14.7265 19.9375C15.1979 20.2579 15.6048 20.6286 16.0193 21.0183C16.2875 21.2647 16.5716 21.4892 16.8576 21.7146C16.9495 21.7874 17.0413 21.8603 17.136 21.9354C17.2007 21.9863 17.2653 22.0373 17.332 22.0898C17.7821 21.9061 18.1015 21.5964 18.4436 21.2614C18.5019 21.2078 18.5602 21.1541 18.6204 21.0988C18.8102 20.9206 18.8102 20.9206 19.0312 20.6171C18.9935 20.1882 18.8393 19.8643 18.6343 19.4901C18.5784 19.3846 18.5226 19.2791 18.465 19.1704C18.3477 18.9517 18.2291 18.7337 18.1093 18.5163C17.7349 17.8024 17.5598 17.2338 17.6718 16.4257C17.7092 16.3136 17.7466 16.2014 17.7851 16.0859C18.1191 15.9746 18.3432 15.9574 18.6914 15.9584C18.7895 15.9582 18.8876 15.9579 18.9887 15.9576C19.2578 15.9726 19.2578 15.9726 19.5976 16.0859C19.7039 16.3189 19.7039 16.3189 19.8242 16.6523C19.9688 16.961 20.1232 17.2647 20.2763 17.5693C20.3443 17.7053 20.3443 17.7053 20.4136 17.8441C20.563 18.1427 20.7126 18.4411 20.8623 18.7396C20.9661 18.947 21.0699 19.1545 21.1737 19.3619C21.4465 19.9071 21.7196 20.4522 21.9928 20.9972C22.2716 21.5538 22.5502 22.1104 22.8288 22.667C23.3752 23.7586 23.9219 24.85 24.4687 25.9414C24.8646 25.8094 24.9245 25.7102 25.1608 25.378C25.2277 25.2854 25.2946 25.1927 25.3635 25.0973C25.4327 24.9997 25.5019 24.902 25.5732 24.8015C25.9713 24.2436 26.371 23.6885 26.8074 23.1598C26.8969 23.0509 26.8969 23.0509 26.9883 22.9399C27.2371 22.727 27.4246 22.689 27.7468 22.6491C28.2031 22.6943 28.4328 22.8117 28.7451 23.1447C28.9107 23.357 29.0691 23.5708 29.2265 23.789C29.3587 23.9662 29.491 24.1431 29.6235 24.32C29.9666 24.7804 30.3058 25.2435 30.6427 25.7085C30.8106 25.9387 30.9808 26.1669 31.1523 26.3945C31.4706 26.2495 31.7022 26.0991 31.948 25.851C32.0115 25.7875 32.075 25.7241 32.1404 25.6586C32.2074 25.5904 32.2745 25.5222 32.3435 25.4519C32.4133 25.3819 32.4831 25.3118 32.5549 25.2396C32.7771 25.0162 32.9984 24.792 33.2197 24.5678C33.3704 24.416 33.5211 24.2642 33.6719 24.1125C34.041 23.7409 34.4093 23.3687 34.7773 22.996C34.2852 22.4069 33.7674 21.8591 33.2215 21.3198C33.14 21.2388 33.0585 21.1577 32.9746 21.0742C32.7167 20.8178 32.4585 20.5616 32.2002 20.3056C31.8582 19.9667 31.5167 19.6274 31.1753 19.2879C31.0576 19.1716 31.0576 19.1716 30.9375 19.0529C30.8649 18.9807 30.7923 18.9084 30.7174 18.834C30.6536 18.7707 30.5897 18.7074 30.5239 18.6422C30.1832 18.2749 30.1035 18.0468 30.1115 17.5585C30.1126 17.4114 30.1126 17.4114 30.1138 17.2612C30.1328 16.9921 30.1328 16.9921 30.2461 16.6523C30.7536 16.4831 31.1913 16.4213 31.7187 16.539C32.1454 16.8337 32.4888 17.1903 32.8515 17.5585C33.0392 17.7109 33.2279 17.8622 33.4179 18.0117C33.6235 17.5658 33.8288 17.1197 34.0339 16.6735C34.0924 16.5467 34.1509 16.4199 34.2111 16.2892C34.267 16.1677 34.3228 16.0461 34.3804 15.9208C34.432 15.8087 34.4836 15.6966 34.5368 15.5811C34.6715 15.2881 34.6715 15.2881 34.7773 14.9531C35.1113 14.8417 35.3354 14.8246 35.6836 14.8256C35.7817 14.8253 35.8798 14.8251 35.9809 14.8247C36.25 14.8398 36.25 14.8398 36.5898 14.9531C36.9227 15.9518 36.624 16.7186 36.1741 17.6307C36.1028 17.7719 36.0313 17.9131 35.9597 18.0541C35.8525 18.2677 35.746 18.4814 35.6411 18.6961C35.5465 18.8891 35.4497 19.0811 35.3528 19.273C35.2108 19.5794 35.2108 19.5794 35.2515 19.8496C35.4034 20.1809 35.6567 20.3948 35.9172 20.6455C36.0213 20.7465 36.1254 20.8476 36.2327 20.9517C36.3132 21.0282 36.3936 21.1047 36.4765 21.1835C37.1287 20.643 37.7235 20.0596 38.3174 19.456C38.497 19.2734 38.677 19.0911 38.8572 18.9091C38.9358 18.8292 39.0144 18.7492 39.0954 18.6669C39.4743 18.3076 39.7029 18.2086 40.2148 18.217C40.3129 18.2177 40.4111 18.2185 40.5122 18.2192C40.7812 18.2382 40.7812 18.2382 41.1211 18.3515C41.2923 18.8652 41.3376 19.2894 41.2343 19.8242C41.0664 20.0704 41.0664 20.0704 40.8303 20.3193C40.7378 20.4173 40.6453 20.5153 40.55 20.6162C39.7803 21.4032 38.9969 22.1765 38.2123 22.9486C37.9824 23.1751 37.7531 23.4024 37.5239 23.6297C37.4172 23.7341 37.4172 23.7341 37.3084 23.8407C37.14 24.008 36.9776 24.1812 36.8164 24.3554C36.8164 24.4302 36.8164 24.505 36.8164 24.582C36.9681 24.6274 36.9681 24.6274 37.1229 24.6738C37.4985 24.7863 37.8741 24.8988 38.2497 25.0114C38.4122 25.06 38.5747 25.1087 38.7372 25.1574C38.9709 25.2273 39.2046 25.2974 39.4382 25.3674C39.5788 25.4095 39.7194 25.4517 39.8643 25.4951C40.0953 25.5652 40.3255 25.6384 40.5547 25.7148C40.666 26.0488 40.6831 26.2729 40.6821 26.621C40.6824 26.7192 40.6827 26.8173 40.683 26.9184C40.6679 27.1875 40.6679 27.1875 40.5547 27.5273C39.7084 27.8094 38.8591 27.624 38.0297 27.368C37.9358 27.3403 37.8418 27.3127 37.745 27.2842C37.4492 27.1967 37.154 27.1072 36.8589 27.0175C36.6567 26.9574 36.4544 26.8973 36.2522 26.8374C35.7601 26.6914 35.2685 26.5435 34.7773 26.3945C33.7155 26.964 32.7272 27.7331 32.2851 28.8867C32.0506 29.9384 32.0432 31.0175 32.0503 32.0907C32.0515 32.32 32.0503 32.5491 32.0487 32.7784C32.049 33.2184 32.06 33.6566 32.0758 34.0963C32.0773 34.2293 32.0788 34.3624 32.0803 34.4995C32.1165 35.0794 32.1654 35.4361 32.5598 35.8782C33.1357 36.3571 33.7525 36.7661 34.4304 37.0854C34.5074 37.1226 34.5844 37.1597 34.6637 37.198C36.5217 38.0661 38.5161 38.1292 40.4697 37.5244C41.6714 37.0846 42.5946 36.4712 43.5 35.5703C43.6314 35.4448 43.6314 35.4448 43.7655 35.3167C45.2793 33.7743 45.8218 31.8257 45.8139 29.7134C45.7862 28.6013 45.5974 27.5657 45.0576 26.5786C44.8022 26.1115 44.7472 25.6703 44.8593 25.1484C45.0845 24.8036 45.2355 24.6249 45.6452 24.5324C46.0513 24.5078 46.2604 24.5393 46.6174 24.7519C46.9903 25.1277 47.1344 25.5145 47.3161 26.0051C47.3823 26.1776 47.4489 26.3501 47.5157 26.5224C47.5583 26.6364 47.5583 26.6364 47.6018 26.7527C47.6973 26.992 47.6973 26.992 47.9179 27.3007C50.4028 26.1565 51.9046 24.6422 52.9213 22.0986C53.5373 20.0976 53.1829 17.8859 52.2509 16.0627C51.2954 14.2791 49.7926 13.0756 47.9179 12.3476C47.6171 12.2595 47.3181 12.1889 47.0117 12.121C46.995 12.2917 46.995 12.2917 46.9781 12.4658C46.8691 13.4909 46.6746 14.4287 46.332 15.4062C46.2946 15.5183 46.2572 15.6305 46.2187 15.746C45.8847 15.8574 45.6606 15.8745 45.3125 15.8735C45.1653 15.8739 45.1653 15.8739 45.0151 15.8744C44.7461 15.8593 44.7461 15.8593 44.4062 15.746C44.3007 15.4296 44.271 15.2182 44.2646 14.8894C44.2617 14.8004 44.2588 14.7115 44.2558 14.6199C44.2903 14.2978 44.3609 14.0475 44.4615 13.7415C44.6487 13.1434 44.6896 12.5963 44.6823 11.9724C44.6816 11.8687 44.6808 11.7651 44.68 11.6583C44.66 10.8091 44.5135 10.0739 44.1797 9.28901C44.1426 9.19234 44.1055 9.09567 44.0673 8.99608C43.3795 7.40466 41.8878 6.21884 40.3281 5.55073C39.0036 5.03919 37.6298 4.98758 36.25 5.32417C36.0753 5.67359 36.2298 5.90255 36.3491 6.26582C36.6158 7.08371 36.7214 7.76818 36.7173 8.62349C36.7177 8.71534 36.7181 8.80719 36.7186 8.90182C36.7184 9.03434 36.7184 9.03434 36.7181 9.16954C36.718 9.24958 36.7179 9.32962 36.7178 9.41209C36.7031 9.62886 36.7031 9.62886 36.5898 9.9687C36.2558 10.08 36.0317 10.0972 35.6836 10.0961C35.5364 10.0966 35.5364 10.0966 35.3862 10.097C35.1172 10.082 35.1172 10.082 34.7773 9.9687C34.5846 9.40189 34.525 8.84195 34.4587 8.24824C34.2232 6.43785 33.3567 4.90411 31.9453 3.73823C28.9901 1.59653 25.5129 1.93748 22.8615 4.38252Z" fill="black"/>
<path d="M46.672 47.2384C47.026 47.4508 47.026 47.4508 47.2384 47.8048C47.3504 48.3741 47.3264 48.7909 47.026 49.2916C46.5253 49.592 46.1085 49.616 45.5391 49.504C45.1851 49.2916 45.1851 49.2916 44.9727 48.9376C44.8607 48.3682 44.8847 47.9515 45.1851 47.4508C45.6858 47.1504 46.1026 47.1264 46.672 47.2384Z" fill="black"/>
<path d="M39.8751 46.672C40.2291 46.8844 40.2291 46.8844 40.4415 47.2384C40.5535 47.8077 40.5295 48.2245 40.2291 48.7252C39.7284 49.0256 39.3116 49.0496 38.7423 48.9376C38.3883 48.7252 38.3883 48.7252 38.1759 48.3712C38.0639 47.8018 38.0879 47.385 38.3883 46.8844C38.889 46.5839 39.3057 46.56 39.8751 46.672Z" fill="black"/>
<path d="M53.4688 46.1056C53.8228 46.318 53.8228 46.318 54.0352 46.672C54.1472 47.2413 54.1233 47.6581 53.8228 48.1588C53.3222 48.4592 52.9054 48.4832 52.336 48.3712C51.982 48.1588 51.982 48.1588 51.7696 47.8048C51.6576 47.2354 51.6816 46.8186 51.982 46.318C52.4827 46.0175 52.8995 45.9935 53.4688 46.1056Z" fill="black"/>
<path d="M24.922 43.8399C25.276 44.0523 25.276 44.0523 25.4884 44.4063C25.6004 44.9757 25.5764 45.3925 25.276 45.8932C24.7753 46.1936 24.3585 46.2176 23.7891 46.1056C23.4351 45.8932 23.4351 45.8932 23.2227 45.5391C23.1107 44.9698 23.1347 44.553 23.4351 44.0523C23.9358 43.7519 24.3526 43.7279 24.922 43.8399Z" fill="black"/>
<path d="M57.4337 43.2735C57.7877 43.4859 57.7877 43.4859 58.0001 43.8399C58.1121 44.4093 58.0881 44.8261 57.7877 45.3267C57.287 45.6272 56.8702 45.6512 56.3009 45.5391C55.9469 45.3267 55.9469 45.3267 55.7345 44.9727C55.6225 44.4034 55.6464 43.9866 55.9469 43.4859C56.4475 43.1855 56.8643 43.1615 57.4337 43.2735Z" fill="black"/>
<path d="M43.2735 43.2735C43.6275 43.4859 43.6275 43.4859 43.8399 43.8399C43.9519 44.4093 43.9279 44.8261 43.6275 45.3267C43.1268 45.6272 42.7101 45.6512 42.1407 45.5391C41.7867 45.3267 41.7867 45.3267 41.5743 44.9727C41.4623 44.4034 41.4863 43.9866 41.7867 43.4859C42.2874 43.1855 42.7041 43.1615 43.2735 43.2735Z" fill="black"/>
<path d="M49.504 42.7071C49.858 42.9195 49.858 42.9195 50.0704 43.2735C50.1824 43.8429 50.1584 44.2597 49.858 44.7603C49.3573 45.0608 48.9406 45.0847 48.3712 44.9727C48.0172 44.7603 48.0172 44.7603 47.8048 44.4063C47.6928 43.837 47.7168 43.4202 48.0172 42.9195C48.5179 42.6191 48.9346 42.5951 49.504 42.7071Z" fill="black"/>
<path d="M37.6095 42.7071C37.9635 42.9195 37.9635 42.9195 38.1759 43.2735C38.2879 43.8429 38.2639 44.2597 37.9635 44.7603C37.4628 45.0608 37.046 45.0847 36.4766 44.9727C36.1226 44.7603 36.1226 44.7603 35.9102 44.4063C35.7982 43.837 35.8222 43.4202 36.1226 42.9195C36.6233 42.6191 37.0401 42.5951 37.6095 42.7071Z" fill="black"/>
<path d="M53.4688 39.8751C53.8228 40.0875 53.8228 40.0875 54.0352 40.4415C54.1472 41.0109 54.1233 41.4276 53.8228 41.9283C53.3222 42.2287 52.9054 42.2527 52.336 42.1407C51.982 41.9283 51.982 41.9283 51.7696 41.5743C51.6576 41.0049 51.6816 40.5882 51.982 40.0875C52.4827 39.7871 52.8995 39.7631 53.4688 39.8751Z" fill="black"/>
</g>
<defs>
<clipPath id="clip0_255_401">
<rect width="58" height="58" fill="white"/>
</clipPath>
</defs>
</svg>
