<svg width="58" height="58" viewBox="0 0 58 58" fill="none" xmlns="http://www.w3.org/2000/svg">
<g clip-path="url(#clip0_255_430)">
<path d="M20.2135 4.36829C20.3116 4.36438 20.4096 4.36046 20.5106 4.35643C20.962 4.35347 21.2281 4.37659 21.6203 4.61211C21.9934 5.18371 22.1305 5.80103 22.3022 6.45691C22.873 8.50037 23.6095 10.0919 25.4882 11.2147C26.5749 11.7868 27.5515 12.0471 28.7733 12.036C28.8697 12.0369 28.9661 12.0378 29.0654 12.0387C29.6884 12.0368 30.2124 11.9454 30.8124 11.7811C32.5785 11.5141 34.0008 11.8801 35.4791 12.8507C36.5033 13.6567 37.0019 14.8509 37.4464 16.0363C37.5079 16.1964 37.5695 16.3565 37.6312 16.5166C37.7717 16.8815 37.9112 17.2467 38.0501 17.6121C38.3146 18.3066 38.5827 18.9996 38.8509 19.6927C39.2733 20.7844 39.6951 21.8763 40.1161 22.9685C40.1432 23.0388 40.1702 23.1091 40.1982 23.1815C40.5353 24.0562 40.872 24.9311 41.2082 25.8062C41.433 26.391 41.658 26.9757 41.8831 27.5604C42.0163 27.9066 42.1494 28.2529 42.2823 28.5992C42.7672 29.8634 43.2538 31.126 43.7782 32.3744C43.8144 32.4605 43.8505 32.5466 43.8878 32.6353C44.5826 34.2689 45.6169 35.5754 47.2382 36.3632C47.9771 36.6533 48.7417 36.8759 49.4994 37.1107C52.7414 38.1223 55.3745 39.7519 57.0083 42.835C57.7277 44.2673 58.0204 45.7285 58.0282 47.3231C58.0317 47.4988 58.0317 47.4988 58.0353 47.678C58.0392 48.4588 57.9319 49.112 57.6601 49.8436C57.6227 49.9461 57.5853 50.0486 57.5468 50.1543C56.8667 51.6048 55.6379 52.7146 54.165 53.3126C52.8 53.7913 51.2915 53.6594 49.864 53.651C49.4199 53.649 48.9758 53.6503 48.5318 53.6512C47.6643 53.6524 46.7969 53.6506 45.9294 53.6477C44.9187 53.6446 43.9081 53.6444 42.8974 53.6444C41.0947 53.6443 39.2921 53.6415 37.4894 53.6371C35.7404 53.6328 33.9914 53.6304 32.2424 53.6301C32.1345 53.6301 32.0266 53.6301 31.9154 53.6301C31.8077 53.63 31.7 53.63 31.589 53.63C31.3721 53.63 31.1552 53.6299 30.9383 53.6299C30.7778 53.6298 30.7778 53.6298 30.6141 53.6298C28.9459 53.6294 27.2778 53.6273 25.6096 53.625C25.0052 53.6243 24.4008 53.6237 23.7964 53.6234C22.8386 53.6228 21.8808 53.6215 20.923 53.6187C20.4855 53.6174 20.0479 53.6165 19.6103 53.6165C19.1365 53.6166 18.6628 53.6149 18.1891 53.613C18.0501 53.6132 17.9111 53.6135 17.7678 53.6138C17.6413 53.613 17.5148 53.6122 17.3844 53.6114C17.2204 53.611 17.2204 53.611 17.053 53.6107C16.7484 53.5802 16.5683 53.5211 16.3124 53.3553C16.0448 52.9678 15.9433 52.6722 15.9796 52.2084C16.0903 51.7512 16.1661 51.5905 16.539 51.3163C16.8714 51.2055 17.0892 51.1876 17.4358 51.1851C17.5506 51.184 17.6654 51.1829 17.7838 51.1817C17.9097 51.1811 18.0356 51.1804 18.1653 51.1797C18.2979 51.1786 18.4305 51.1775 18.5672 51.1763C18.9309 51.1734 19.2946 51.1709 19.6582 51.1686C20.0383 51.1662 20.4184 51.1631 20.7985 51.16C21.5182 51.1544 22.238 51.1493 22.9577 51.1444C23.7771 51.1388 24.5965 51.1326 25.4159 51.1263C27.1014 51.1134 28.787 51.1013 30.4726 51.0897C30.3557 51.0204 30.2389 50.951 30.1185 50.8796C29.9638 50.7873 29.8091 50.6951 29.6544 50.6028C29.5391 50.5345 29.5391 50.5345 29.4215 50.4648C28.8704 50.1356 28.3576 49.7845 27.8671 49.3693C27.7933 49.3082 27.7196 49.2472 27.6436 49.1842C26.8801 48.5444 26.1578 47.8608 25.4356 47.1751C25.161 46.9171 24.8763 46.6715 24.5908 46.4257C24.2664 46.1404 23.9501 45.8467 23.6332 45.5531C23.0105 44.9762 22.3824 44.4059 21.7499 43.8397C21.085 43.2435 20.4235 42.6438 19.7659 42.0395C19.2922 41.6046 18.8148 41.174 18.336 40.7448C18.226 40.6457 18.1163 40.546 18.0116 40.4413C17.8297 40.4303 17.6473 40.4272 17.465 40.4272C17.3467 40.4269 17.2284 40.4266 17.1065 40.4263C16.9101 40.4267 16.9101 40.4267 16.7097 40.427C16.5727 40.4268 16.4356 40.4266 16.2944 40.4264C15.9956 40.4259 15.6968 40.4257 15.398 40.4256C14.9253 40.4255 14.4526 40.4241 13.9799 40.4223C13.9001 40.422 13.8204 40.4217 13.7383 40.4214C13.5752 40.4208 13.4121 40.4202 13.2491 40.4196C12.1482 40.4156 11.0473 40.4126 9.94639 40.4129C9.20437 40.4131 8.46237 40.4113 7.72036 40.4072C7.32765 40.4051 6.93499 40.404 6.54227 40.4054C6.10371 40.4069 5.66524 40.4041 5.22669 40.4009C5.03201 40.4026 5.03201 40.4026 4.8334 40.4044C3.85136 40.3916 3.85136 40.3916 3.43275 40.0544C3.12318 39.7071 3.06513 39.6229 3.03018 39.1598C3.06035 38.7148 3.12252 38.5204 3.39834 38.1757C3.71866 37.9813 3.95925 37.9204 4.33172 37.9176C4.4742 37.9157 4.4742 37.9157 4.61955 37.9137C4.72279 37.9135 4.82603 37.9132 4.9324 37.913C5.04185 37.9118 5.1513 37.9107 5.26407 37.9095C5.6257 37.906 5.98732 37.9041 6.34896 37.9022C6.59976 37.9001 6.85055 37.8979 7.10134 37.8955C7.76134 37.8897 8.42134 37.8852 9.08136 37.881C9.75488 37.8765 10.4284 37.8707 11.1019 37.865C12.4234 37.8541 13.7448 37.8445 15.0663 37.8358C14.943 37.7112 14.8195 37.5867 14.6959 37.4623C14.6272 37.393 14.5584 37.3237 14.4876 37.2523C14.2107 36.9817 13.9199 36.7301 13.6268 36.4773C13.314 36.2034 13.0075 35.9226 12.7016 35.641C12.2835 35.2563 11.8642 34.8734 11.4413 34.494C11.0235 34.1191 10.6086 33.741 10.1952 33.3612C9.59469 32.8096 8.98979 32.263 8.38272 31.7186C7.71712 31.1217 7.05467 30.5217 6.39667 29.9164C6.03491 29.584 5.66987 29.2557 5.30288 28.9291C3.60484 27.3943 2.39484 25.7983 2.24252 23.4314C2.21103 21.1849 2.87714 19.2654 4.44398 17.6355C4.77994 17.3227 5.0764 17.0485 5.50289 16.8695C5.93308 16.6872 6.24828 16.5279 6.44493 16.0836C6.60931 15.586 6.72978 15.0784 6.85475 14.5698C7.70177 11.1829 10.2974 8.15137 13.2407 6.36908C14.6451 5.55618 16.0922 5.00286 17.6718 4.64441C17.7873 4.61667 17.9028 4.58892 18.0218 4.56034C18.746 4.41204 19.4764 4.38553 20.2135 4.36829ZM15.2929 8.04285C15.1367 8.12652 15.1367 8.12652 14.9774 8.21189C14.7408 8.34135 14.5062 8.47326 14.2733 8.60926C14.5596 8.89707 14.8469 9.18257 15.1398 9.46373C16.6462 10.9249 17.6908 12.6924 18.2382 14.7264C18.2636 14.8179 18.289 14.9093 18.3152 15.0035C18.9572 17.809 18.2155 20.6926 16.7655 23.1093C16.5508 23.4219 16.3272 23.7229 16.0858 24.0155C16.2681 24.4522 16.5501 24.7484 16.8717 25.0917C16.9846 25.2129 17.0974 25.3342 17.2102 25.4554C17.268 25.5171 17.3258 25.5789 17.3853 25.6425C17.6573 25.9339 17.9266 26.2278 18.1957 26.5219C18.2474 26.5783 18.299 26.6347 18.3522 26.6928C18.5031 26.8576 18.6538 27.0225 18.8046 27.1874C18.8947 27.2855 18.9848 27.3836 19.0776 27.4847C19.3292 27.7609 19.5771 28.0399 19.8241 28.3202C19.9114 28.416 19.9988 28.5118 20.0887 28.6105C20.7868 29.4138 20.7868 29.4138 20.8224 29.9415C20.7085 30.4585 20.6082 30.6356 20.164 30.9257C19.8063 31.0059 19.5025 31.0033 19.1444 30.9257C18.6493 30.6087 18.3059 30.1894 17.9267 29.7442C17.5863 29.3554 17.2325 28.98 16.8788 28.6034C16.0464 27.716 16.0464 27.716 15.6894 27.3007C15.2428 26.7816 14.7709 26.2862 14.3029 25.7867C13.8415 25.2939 13.3865 24.7962 12.9365 24.293C12.4953 23.8015 12.0475 23.316 11.6007 22.8297C11.2879 22.4891 10.9755 22.148 10.6631 21.8071C10.4008 21.5209 10.1384 21.2348 9.87573 20.9489C9.76982 20.8336 9.66392 20.7183 9.55801 20.6029C9.5066 20.547 9.45519 20.4911 9.40222 20.4335C8.98 19.9734 8.5652 19.5069 8.15306 19.0378C7.94131 18.8168 7.72669 18.6399 7.47647 18.4647C6.07034 19.2453 5.2484 20.2083 4.75772 21.7499C4.48662 23.1209 4.66985 24.4603 5.43785 25.6497C6.08346 26.4823 6.88248 27.1969 7.68223 27.8786C8.0119 28.1652 8.33152 28.4621 8.65176 28.7592C9.17981 29.2486 9.71163 29.7332 10.2479 30.2137C10.5769 30.5102 10.903 30.8098 11.2289 31.1097C11.5956 31.447 11.9637 31.782 12.3405 32.108C12.8083 32.5136 13.2613 32.9348 13.7155 33.3556C14.2741 33.8728 14.839 34.3827 15.4062 34.8905C16.0719 35.4874 16.734 36.0879 17.3924 36.6927C17.9352 37.1909 18.4827 37.6838 19.0312 38.1757C19.697 38.7727 20.3594 39.3733 21.0179 39.9784C21.4642 40.388 21.9141 40.7935 22.365 41.198C22.6952 41.496 23.0227 41.7969 23.35 42.098C23.7167 42.4353 24.0848 42.7703 24.4616 43.0963C24.9294 43.5019 25.3824 43.9231 25.8365 44.3438C26.3069 44.7794 26.7809 45.2106 27.2591 45.6376C27.4347 45.7955 27.6088 45.9551 27.7812 46.1164C29.9831 48.1588 32.4536 49.6577 35.3224 50.5516C35.4469 50.5914 35.4469 50.5914 35.5739 50.632C37.65 51.2467 39.7502 51.2553 41.8967 51.2521C42.1294 51.2524 42.3621 51.2529 42.5948 51.2534C43.3228 51.255 44.0508 51.2548 44.7788 51.2535C45.5261 51.2522 46.2734 51.2538 47.0207 51.2569C47.6673 51.2594 48.3138 51.2601 48.9604 51.2595C49.3445 51.2591 49.7285 51.2593 50.1126 51.2613C50.54 51.263 50.9673 51.2618 51.3947 51.2598C51.5196 51.2609 51.6446 51.262 51.7733 51.2632C52.9759 51.2518 53.8515 50.9085 54.724 50.0808C55.099 49.6715 55.3944 49.2846 55.3944 48.7108C55.2254 48.7098 55.2254 48.7098 55.053 48.7088C53.977 48.7022 52.901 48.694 51.825 48.6841C51.2722 48.6791 50.7194 48.6746 50.1665 48.6716C44.2047 48.6374 44.2047 48.6374 41.4467 47.9532C41.3267 47.9243 41.2066 47.8953 41.083 47.8655C36.5255 46.7307 32.2037 44.5887 28.7733 41.3475C28.6205 41.2147 28.4671 41.0826 28.3131 40.9511C26.0641 38.9877 26.0641 38.9877 25.4882 37.8358C25.4396 36.9612 25.4396 36.9612 25.7147 36.5897C26.1043 36.3012 26.4906 36.3302 26.9608 36.3632C27.2794 36.4481 27.2794 36.4481 27.5272 36.5897C27.56 36.6575 27.5927 36.7252 27.6264 36.795C27.7832 37.1 27.9807 37.2875 28.2282 37.5243C28.5515 37.8394 28.8592 38.1549 29.1486 38.5013C29.6877 39.1279 30.3063 39.6699 30.9257 40.2147C31.0311 40.3088 31.1365 40.4028 31.2452 40.4997C31.343 40.5832 31.4409 40.6668 31.5417 40.7528C31.6711 40.8641 31.6711 40.8641 31.8032 40.9776C32.1381 41.1657 32.2586 41.1054 32.6249 41.0077C32.8374 40.9264 33.0476 40.8393 33.2559 40.7479C33.4364 40.6688 33.4364 40.6688 33.6205 40.588C33.7452 40.5326 33.87 40.4771 33.9984 40.42C34.1816 40.3402 34.1816 40.3402 34.3684 40.2588C35.1699 39.9048 35.941 39.5142 36.703 39.0819C36.5417 38.6504 36.3429 38.2613 36.1136 37.8619C36.0407 37.7346 35.9679 37.6074 35.8928 37.4762C35.8136 37.3388 35.7344 37.2015 35.6552 37.0641C35.5731 36.9211 35.491 36.7781 35.409 36.6351C34.8335 35.6333 34.2526 34.6346 33.6693 33.6374C32.8274 32.1978 31.9964 30.7519 31.1641 29.3068C30.4012 27.9824 29.6367 26.659 28.8654 25.3395C28.6079 24.8983 28.3506 24.457 28.0937 24.0155C27.9977 23.8507 27.9977 23.8507 27.8999 23.6826C27.7137 23.3621 27.5283 23.041 27.3432 22.7199C27.2882 22.6254 27.2333 22.5309 27.1767 22.4336C26.1366 20.6222 25.6471 18.6835 26.1617 16.5934C26.3953 15.8111 26.7493 15.0745 27.1874 14.3866C27.0187 14.3391 27.0187 14.3391 26.8467 14.2906C24.3801 13.5728 22.3595 12.3427 21.0557 10.06C20.6333 9.2724 20.3782 8.42725 20.1185 7.57551C20.0338 7.31013 19.9328 7.05319 19.8241 6.79676C18.2991 6.71134 16.6143 7.32686 15.2929 8.04285ZM11.9006 10.5005C10.5058 12.0553 9.252 14.039 8.90399 16.1305C8.97137 16.5712 9.248 16.8084 9.55093 17.1124C9.67635 17.2431 9.80173 17.3738 9.92706 17.5045C9.99091 17.5702 10.0548 17.6358 10.1205 17.7035C10.4036 17.9969 10.6782 18.2978 10.9528 18.5992C11.0043 18.6555 11.0558 18.7117 11.1089 18.7697C11.4271 19.117 11.7428 19.4664 12.0573 19.817C12.4647 20.2708 12.8759 20.7209 13.2892 21.1693C13.3463 21.2314 13.4034 21.2934 13.4622 21.3574C13.7638 21.684 14.0696 22.0046 14.3866 22.3163C15.8464 20.5562 16.3728 18.4524 16.1991 16.1991C15.9079 14.0228 14.7346 12.0828 13.0401 10.7005C12.4864 10.254 12.4864 10.254 11.9006 10.5005ZM29.5663 15.1796C28.7368 16.162 28.2861 17.117 28.2636 18.401C28.2615 18.478 28.2594 18.5549 28.2572 18.6342C28.2719 19.8402 28.8803 20.8655 29.4884 21.8702C29.6309 22.1099 29.7732 22.3496 29.9154 22.5893C30.0253 22.7736 30.0253 22.7736 30.1374 22.9615C30.5004 23.5738 30.8544 24.1913 31.2089 24.8085C31.7535 25.7542 32.3008 26.6983 32.8515 27.6405C33.7603 29.1959 34.6593 30.757 35.5584 32.318C35.7723 32.6894 35.9863 33.0607 36.2003 33.432C36.3042 33.6121 36.3042 33.6121 36.4101 33.7959C36.9838 34.7901 37.5616 35.7819 38.1414 36.7725C38.235 36.9326 38.235 36.9326 38.3306 37.096C38.3856 37.1899 38.4406 37.2839 38.4973 37.3807C38.5832 37.53 38.6651 37.6818 38.7421 37.8358C39.5109 37.614 40.1228 37.18 40.7798 36.7397C40.9944 36.5962 41.2103 36.455 41.4263 36.3138C41.5627 36.2232 41.699 36.1324 41.8352 36.0415C41.959 35.9593 42.0828 35.8771 42.2104 35.7924C42.2995 35.719 42.3886 35.6457 42.4804 35.5702C42.4804 35.1206 42.2823 34.8177 42.0768 34.4303C41.5656 33.4421 41.1672 32.4211 40.7812 31.3788C40.3785 31.4478 40.3785 31.4478 40.0094 31.6124C39.6261 31.7767 39.2599 31.7939 38.8554 31.7186C38.5155 31.4991 38.5155 31.4991 38.289 31.1522C38.195 30.6849 38.1931 30.2896 38.4447 29.8778C38.7318 29.6864 39.018 29.5368 39.3271 29.384C39.4295 29.3332 39.532 29.2824 39.6376 29.2301C39.755 29.1722 39.755 29.1722 39.8749 29.1132C39.7181 28.6857 39.5609 28.2585 39.4034 27.8313C39.3499 27.6861 39.2965 27.5408 39.2432 27.3955C39.1664 27.1862 39.0892 26.9771 39.012 26.7679C38.9657 26.6421 38.9195 26.5164 38.8718 26.3868C38.7657 26.115 38.6519 25.8589 38.5155 25.6014C38.1478 25.7181 37.8077 25.8418 37.4606 26.0121C36.9613 26.1983 36.5494 26.2701 36.0233 26.1679C35.6778 25.9422 35.5029 25.7899 35.4034 25.382C35.3704 24.935 35.396 24.7687 35.6928 24.4107C36.0602 24.0974 36.4172 23.8996 36.8517 23.6969C36.9613 23.644 36.9613 23.644 37.0732 23.59C37.2514 23.5042 37.4303 23.4199 37.6093 23.3358C37.3621 22.5685 37.0846 21.8153 36.7951 21.0631C36.7534 20.9543 36.7117 20.8454 36.6687 20.7332C36.5671 20.4679 36.4652 20.2026 36.3632 19.9374C35.9938 20.0564 35.6516 20.1793 35.3012 20.348C34.7947 20.5401 34.5219 20.5732 33.9843 20.5038C33.6444 20.2843 33.6444 20.2843 33.4179 19.9374C33.3469 19.5843 33.3272 19.2676 33.4179 18.9179C33.7555 18.4818 34.2039 18.2712 34.6923 18.0399C34.7659 18.0041 34.8395 17.9684 34.9153 17.9315C35.0954 17.8441 35.2761 17.7578 35.4569 17.6718C35.3542 17.3834 35.2502 17.0956 35.1454 16.808C35.1168 16.7272 35.0882 16.6465 35.0587 16.5633C34.7227 15.6477 34.232 14.9377 33.4179 14.3866C32.0293 13.7864 30.6441 14.1155 29.5663 15.1796ZM43.4079 37.7438C41.0024 39.4971 38.3631 40.91 35.6675 42.1596C35.4956 42.2399 35.4956 42.2399 35.3202 42.3219C35.218 42.369 35.1158 42.4162 35.0105 42.4647C34.7602 42.5743 34.7602 42.5743 34.664 42.8202C37.8412 44.5805 41.1331 45.7665 44.746 46.2186C44.8176 46.2287 44.8891 46.2387 44.9628 46.249C46.0106 46.3773 47.0669 46.346 48.1205 46.343C48.3373 46.3428 48.5541 46.3426 48.771 46.3425C49.3382 46.3421 49.9055 46.3409 50.4727 46.3397C51.0529 46.3385 51.6331 46.338 52.2133 46.3374C53.3492 46.3362 54.4851 46.3343 55.621 46.3319C55.5687 46.0965 55.5159 45.8613 55.4628 45.6261C55.4188 45.4296 55.4188 45.4296 55.3738 45.2291C55.2593 44.7722 55.1015 44.3695 54.8847 43.953C54.8459 43.8777 54.8072 43.8023 54.7673 43.7247C53.3638 41.1149 50.9394 40.0757 48.2326 39.2406C46.8989 38.8267 45.6454 38.3607 44.5465 37.4686C44.0662 37.0914 43.8271 37.43 43.4079 37.7438Z" fill="black"/>
<path d="M3.98136 51.1848C4.06336 51.1842 4.14537 51.1836 4.22986 51.183C4.50112 51.1814 4.77238 51.1806 5.04364 51.18C5.23229 51.1793 5.42093 51.1787 5.60957 51.178C6.00515 51.1769 6.40072 51.1762 6.7963 51.1758C7.3028 51.1752 7.80928 51.1724 8.31577 51.1692C8.70547 51.1671 9.09517 51.1665 9.48488 51.1664C9.67159 51.166 9.8583 51.1651 10.045 51.1636C10.3064 51.1617 10.5677 51.1619 10.8291 51.1626C11.0521 51.162 11.0521 51.162 11.2796 51.1614C11.7865 51.2157 12.0722 51.3919 12.4397 51.734C12.6372 52.1187 12.6513 52.4843 12.5742 52.9022C12.371 53.2205 12.2322 53.4131 11.8945 53.5819C11.6175 53.5942 11.3437 53.5997 11.0667 53.6002C10.9814 53.6007 10.8961 53.6013 10.8082 53.6019C10.5253 53.6035 10.2423 53.6043 9.95943 53.6049C9.76301 53.6056 9.56659 53.6062 9.37016 53.6069C8.95791 53.6081 8.54566 53.6087 8.13341 53.6091C7.60544 53.6097 7.0775 53.6125 6.54954 53.6157C6.14361 53.6178 5.73769 53.6184 5.33175 53.6186C5.13713 53.6189 4.94252 53.6198 4.74791 53.6213C4.47538 53.6232 4.20292 53.623 3.93039 53.6223C3.81004 53.6239 3.81004 53.6239 3.68726 53.6255C3.1938 53.6213 2.88624 53.5415 2.49216 53.2421C2.206 52.8289 2.25068 52.4896 2.31693 52.0101C2.40389 51.6722 2.54985 51.5155 2.83201 51.3163C3.23424 51.1822 3.55667 51.187 3.98136 51.1848Z" fill="black"/>
<path d="M9.87693 44.5613C9.99668 44.5601 9.99668 44.5601 10.1188 44.5588C10.3816 44.5569 10.6441 44.5591 10.9069 44.5615C11.0901 44.5614 11.2733 44.5612 11.4566 44.5607C11.8402 44.5604 12.2237 44.562 12.6072 44.5652C13.0983 44.569 13.5892 44.5683 14.0802 44.5662C14.4585 44.565 14.8367 44.566 15.2149 44.5677C15.3959 44.5683 15.577 44.5683 15.758 44.5676C16.0113 44.5669 16.2643 44.5693 16.5176 44.5724C16.6615 44.5731 16.8055 44.5738 16.9538 44.5745C17.3963 44.6427 17.5834 44.7741 17.8984 45.0859C18.0803 45.4497 18.0655 45.8241 18.0117 46.2187C17.7973 46.598 17.6517 46.7472 17.2482 46.9115C16.8617 47.0164 16.5383 47.0412 16.1384 47.0428C15.9212 47.0444 15.9212 47.0444 15.6996 47.0461C15.543 47.046 15.3863 47.0459 15.2297 47.0458C15.0675 47.0462 14.9053 47.0467 14.743 47.0472C14.4038 47.0481 14.0645 47.048 13.7253 47.0474C13.292 47.0468 12.8589 47.0487 12.4257 47.0513C12.0909 47.053 11.7561 47.0531 11.4213 47.0528C11.2616 47.0528 11.102 47.0534 10.9423 47.0545C9.38094 47.0644 9.38094 47.0644 8.72266 46.6718C8.39705 46.3157 8.38281 46.1391 8.38281 45.6523C8.46398 44.8136 9.12943 44.5619 9.87693 44.5613Z" fill="black"/>
<path d="M1.51872 44.5577C1.65505 44.5569 1.65505 44.5569 1.79414 44.556C1.98571 44.5556 2.17728 44.5567 2.36883 44.5591C2.66133 44.5621 2.95334 44.5591 3.24582 44.5555C3.43241 44.5558 3.619 44.5566 3.80559 44.5577C3.89257 44.5565 3.97955 44.5554 4.06917 44.5542C4.52806 44.5642 4.73334 44.6129 5.0935 44.9066C5.39328 45.2868 5.45961 45.4474 5.42339 45.9215C5.37386 46.3215 5.34661 46.4212 5.0623 46.7286C4.32618 47.1395 3.50489 47.0369 2.6834 47.0401C2.5354 47.0425 2.3874 47.0448 2.23492 47.0472C0.843352 47.0529 0.843352 47.0529 0.226608 46.672C-0.0113535 46.315 -0.0388247 46.1936 -0.0495148 45.7799C-0.0540416 45.6844 -0.0585684 45.5889 -0.0632324 45.4905C0.117348 44.6596 0.77721 44.5479 1.51872 44.5577Z" fill="black"/>
<path d="M23.5625 32.5117C23.9705 32.7144 24.2029 32.9716 24.3626 33.4037C24.3533 33.8687 24.2504 34.1494 24.0156 34.5507C23.6296 34.8314 23.4095 34.8906 22.9324 34.8906C22.449 34.7499 22.2625 34.6267 21.9766 34.2109C21.8674 33.6821 21.9019 33.3109 22.189 32.8515C22.6031 32.4618 23.0106 32.4215 23.5625 32.5117Z" fill="black"/>
</g>
<defs>
<clipPath id="clip0_255_430">
<rect width="58" height="58" fill="white"/>
</clipPath>
</defs>
</svg>
